<svg width="91" height="23" viewBox="0 0 91 23" fill="none" xmlns="http://www.w3.org/2000/svg">
<g clip-path="url(#clip0)">
<path d="M11.7031 0C9.38847 0 7.12578 0.674463 5.20122 1.9381C3.27666 3.20173 1.77664 4.99779 0.890853 7.09913C0.00507115 9.20049 -0.22669 11.5127 0.224878 13.7435C0.676445 15.9743 1.79106 18.0234 3.42777 19.6317C5.06448 21.24 7.14978 22.3354 9.41997 22.779C11.6902 23.2227 14.0432 22.9951 16.1817 22.1247C18.3202 21.2542 20.148 19.7802 21.4339 17.8891C22.7198 15.9979 23.4062 13.7745 23.4062 11.5C23.4062 8.45001 22.1732 5.52494 19.9785 3.36827C17.7837 1.2116 14.807 0 11.7031 0ZM11.7031 21.2308C9.74457 21.2308 7.83 20.6601 6.20152 19.5908C4.57303 18.5216 3.30378 17.0019 2.55428 15.2238C1.80477 13.4457 1.60867 11.4892 1.99076 9.60162C2.37285 7.71403 3.31599 5.98017 4.70089 4.6193C6.08582 3.25843 7.8503 2.33166 9.77121 1.9562C11.6921 1.58074 13.6832 1.77344 15.4927 2.50994C17.3022 3.24644 18.8487 4.49366 19.9369 6.09388C21.025 7.69408 21.6058 9.57544 21.6058 11.5C21.6058 14.0808 20.5625 16.5558 18.7054 18.3807C16.8483 20.2056 14.3295 21.2308 11.7031 21.2308Z" fill="#05051B"/>
<path d="M7.01338 11.2701C7.09705 11.353 7.19663 11.4188 7.30633 11.4637C7.41603 11.5086 7.5337 11.5318 7.65255 11.5318C7.77139 11.5318 7.88906 11.5086 7.99876 11.4637C8.10847 11.4188 8.20802 11.353 8.29171 11.2701L10.4073 9.19125C10.8048 8.79503 11.0472 8.27363 11.0918 7.71895C11.1364 7.16428 10.9802 6.61196 10.6509 6.15935C10.3216 5.70673 9.84024 5.38288 9.29171 5.2449C8.74317 5.10692 8.16267 5.16365 7.65255 5.40508C7.14163 5.14875 6.55403 5.08115 5.99668 5.21459C5.43932 5.34806 4.94923 5.67369 4.6156 6.13225C4.28196 6.59081 4.12693 7.15184 4.17873 7.71323C4.23051 8.27465 4.48568 8.79911 4.89781 9.19125L7.01338 11.2701ZM6.16715 7.07701C6.22179 7.02082 6.28744 6.97609 6.36017 6.94552C6.43288 6.91496 6.51118 6.8992 6.59025 6.8992C6.66935 6.8992 6.74762 6.91496 6.82036 6.94552C6.89307 6.97609 6.95874 7.02082 7.01338 7.07701C7.09705 7.15992 7.19663 7.22574 7.30633 7.27064C7.41603 7.31557 7.5337 7.33867 7.65255 7.33867C7.77139 7.33867 7.88906 7.31557 7.99876 7.27064C8.10847 7.22574 8.20802 7.15992 8.29171 7.07701C8.34699 7.02192 8.41286 6.97818 8.4855 6.9483C8.55813 6.91844 8.63609 6.90307 8.71482 6.90307C8.79357 6.90307 8.87151 6.91844 8.94416 6.9483C9.01678 6.97818 9.08267 7.02192 9.13795 7.07701C9.19513 7.13071 9.24065 7.19524 9.27176 7.26669C9.30286 7.33816 9.3189 7.41507 9.3189 7.49277C9.3189 7.5705 9.30286 7.64741 9.27176 7.71888C9.24065 7.79033 9.19513 7.85486 9.13795 7.90856L7.65255 9.3947L6.16715 7.96163C6.10997 7.90793 6.06444 7.84343 6.03334 7.77195C6.00223 7.7005 5.9862 7.62357 5.9862 7.54587C5.9862 7.46814 6.00223 7.39123 6.03334 7.31976C6.06444 7.24831 6.10997 7.18378 6.16715 7.13008V7.07701Z" fill="#05051B"/>
<path d="M15.1157 11.2701C15.1993 11.353 15.2989 11.4188 15.4086 11.4637C15.5183 11.5086 15.636 11.5318 15.7548 11.5318C15.8737 11.5318 15.9914 11.5086 16.1011 11.4637C16.2108 11.4188 16.3103 11.353 16.394 11.2701L18.5096 9.19125C18.9071 8.79503 19.1495 8.27363 19.1941 7.71895C19.2387 7.16428 19.0825 6.61196 18.7532 6.15935C18.4239 5.70673 17.9425 5.38288 17.394 5.2449C16.8455 5.10692 16.265 5.16365 15.7548 5.40508C15.2439 5.14875 14.6563 5.08115 14.099 5.21459C13.5416 5.34806 13.0515 5.67369 12.7179 6.13225C12.3843 6.59081 12.2292 7.15184 12.281 7.71323C12.3328 8.27465 12.588 8.79911 13.0001 9.19125L15.1157 11.2701ZM14.2694 7.07701C14.3241 7.02082 14.3897 6.97609 14.4625 6.94552C14.5352 6.91496 14.6134 6.8992 14.6925 6.8992C14.7716 6.8992 14.8499 6.91496 14.9227 6.94552C14.9954 6.97609 15.061 7.02082 15.1157 7.07701C15.1993 7.15992 15.2989 7.22574 15.4086 7.27064C15.5183 7.31557 15.636 7.33867 15.7548 7.33867C15.8737 7.33867 15.9914 7.31557 16.1011 7.27064C16.2108 7.22574 16.3103 7.15992 16.394 7.07701C16.4493 7.02192 16.5152 6.97818 16.5878 6.9483C16.6604 6.91844 16.7384 6.90307 16.8171 6.90307C16.8959 6.90307 16.9738 6.91844 17.0465 6.9483C17.1191 6.97818 17.185 7.02192 17.2402 7.07701C17.2974 7.13071 17.3429 7.19524 17.3741 7.26669C17.4051 7.33816 17.4212 7.41507 17.4212 7.49277C17.4212 7.5705 17.4051 7.64741 17.3741 7.71888C17.3429 7.79033 17.2974 7.85486 17.2402 7.90856L15.7548 9.3947L14.2694 7.96163C14.2122 7.90793 14.1667 7.84343 14.1356 7.77195C14.1045 7.7005 14.0885 7.62357 14.0885 7.54587C14.0885 7.46814 14.1045 7.39123 14.1356 7.31976C14.1667 7.24831 14.2122 7.18378 14.2694 7.13008V7.07701Z" fill="#05051B"/>
<path d="M18.0048 12.3845C17.766 12.3845 17.5371 12.4777 17.3682 12.6436C17.1994 12.8095 17.1046 13.0345 17.1046 13.2691C17.1046 15.7107 14.6829 17.6922 11.7031 17.6922C8.72334 17.6922 6.30169 15.7107 6.30169 13.2691C6.30169 13.0345 6.20684 12.8095 6.03803 12.6436C5.8692 12.4777 5.64021 12.3845 5.40144 12.3845C5.1627 12.3845 4.93371 12.4777 4.76488 12.6436C4.59605 12.8095 4.50122 13.0345 4.50122 13.2691C4.50122 16.6838 7.73308 19.4614 11.7031 19.4614C15.6732 19.4614 18.9051 16.6838 18.9051 13.2691C18.9051 13.0345 18.8102 12.8095 18.6414 12.6436C18.4725 12.4777 18.2436 12.3845 18.0048 12.3845Z" fill="#05051B"/>
<path d="M36.5076 15.1407H31.5666L30.5545 17.896H28.0498L32.7162 5.8374H35.4611L40.0933 17.896H37.5197L36.5076 15.1407ZM32.3559 12.9978H35.7185L34.0372 8.4396L32.3559 12.9978Z" fill="#05051B"/>
<path d="M45.9034 15.719C46.3953 15.719 46.8641 15.6453 47.3101 15.4979C47.7562 15.3392 48.1451 15.101 48.4767 14.7836C48.8086 14.4661 49.0715 14.0693 49.266 13.593C49.4605 13.1055 49.5576 12.5329 49.5576 11.8752C49.5576 11.2176 49.4605 10.6507 49.266 10.1744C49.0715 9.68687 48.8086 9.28435 48.4767 8.96686C48.1565 8.64938 47.7735 8.41127 47.3274 8.25253C46.8814 8.09379 46.4124 8.01441 45.9206 8.01441H44.0162V15.719H45.9034ZM41.6487 17.896V5.8374H46.0064C46.8755 5.8374 47.6761 5.97347 48.4083 6.2456C49.1402 6.51771 49.7693 6.91458 50.2954 7.43614C50.8329 7.94639 51.2503 8.57567 51.5478 9.32403C51.8566 10.0724 52.0109 10.9228 52.0109 11.8752C52.0109 12.8277 51.8566 13.6781 51.5478 14.4264C51.2503 15.1748 50.8329 15.8041 50.2954 16.3143C49.7577 16.8245 49.1229 17.2157 48.391 17.4878C47.6591 17.76 46.8584 17.896 45.9891 17.896H41.6487Z" fill="#05051B"/>
<path d="M58.3182 11.331C58.9129 11.331 59.376 11.1779 59.7077 10.8718C60.0509 10.5543 60.2224 10.1347 60.2224 9.61316C60.2224 9.0689 60.0509 8.6437 59.7077 8.33757C59.376 8.03143 58.9129 7.87836 58.3182 7.87836H56.4481V11.331H58.3182ZM56.431 13.3549V17.896H54.0635V5.8374H58.6097C59.2045 5.8374 59.7477 5.93379 60.2397 6.12654C60.7314 6.30796 61.1545 6.56874 61.5091 6.9089C61.8636 7.23771 62.1325 7.63456 62.3154 8.09946C62.5098 8.55299 62.6072 9.0519 62.6072 9.59616C62.6072 10.1404 62.5098 10.645 62.3154 11.1099C62.1325 11.5747 61.8636 11.9716 61.5091 12.3004C61.1545 12.6292 60.7314 12.89 60.2397 13.0828C59.7477 13.2642 59.2045 13.3549 58.6097 13.3549H56.431Z" fill="#05051B"/>
<path d="M64.4172 17.896V5.8374H66.7848V15.651H72.206V17.896H64.4172Z" fill="#05051B"/>
<path d="M73.8456 17.896V9.52813H76.1274V17.896H73.8456ZM73.571 6.78984C73.571 6.39299 73.7084 6.0585 73.9829 5.78637C74.2573 5.51424 74.5891 5.37817 74.9778 5.37817C75.3781 5.37817 75.71 5.51424 75.9729 5.78637C76.2474 6.0585 76.3846 6.39299 76.3846 6.78984C76.3846 7.16403 76.2474 7.48717 75.9729 7.7593C75.71 8.03143 75.3781 8.16749 74.9778 8.16749C74.5891 8.16749 74.2573 8.03143 73.9829 7.7593C73.7084 7.48717 73.571 7.16403 73.571 6.78984Z" fill="#05051B"/>
<path d="M79.8055 15.1407C79.8284 15.4695 79.9656 15.7643 80.2171 16.0251C80.4687 16.2859 80.8463 16.4163 81.3494 16.4163C81.727 16.4163 82.0072 16.3369 82.1901 16.1782C82.3731 16.0081 82.4646 15.8097 82.4646 15.5829C82.4646 15.3902 82.3959 15.2257 82.2587 15.0897C82.1216 14.9423 81.8871 14.8345 81.5555 14.7665L80.4403 14.5114C79.6167 14.33 79.0162 14.0182 78.6389 13.576C78.2615 13.1224 78.0727 12.6008 78.0727 12.0112C78.0727 11.637 78.1528 11.2856 78.3129 10.9567C78.473 10.6166 78.6903 10.3274 78.9648 10.0893C79.2507 9.83989 79.5823 9.64147 79.9599 9.49405C80.3486 9.34666 80.7719 9.27295 81.2293 9.27295C81.8241 9.27295 82.3274 9.35798 82.7391 9.52808C83.1508 9.68682 83.4826 9.89092 83.7342 10.1404C83.9971 10.3898 84.1916 10.6563 84.3174 10.9397C84.4432 11.2118 84.5176 11.4613 84.5405 11.6881L82.6361 12.1133C82.6133 11.9886 82.5733 11.8638 82.516 11.7391C82.4703 11.603 82.3902 11.4783 82.2758 11.3649C82.1616 11.2516 82.0185 11.1608 81.847 11.0928C81.6869 11.0248 81.4868 10.9907 81.2466 10.9907C80.9491 10.9907 80.6918 11.0701 80.4746 11.2289C80.2685 11.3876 80.1657 11.586 80.1657 11.8241C80.1657 12.0282 80.2344 12.1927 80.3716 12.3174C80.5203 12.4421 80.7089 12.5271 80.9377 12.5725L82.1386 12.8276C82.9736 12.9977 83.5968 13.3152 84.0087 13.7801C84.4318 14.2449 84.6433 14.7835 84.6433 15.3958C84.6433 15.736 84.5749 16.0705 84.4375 16.3993C84.3117 16.7281 84.1116 17.0229 83.837 17.2837C83.5627 17.5445 83.2195 17.7543 82.8078 17.913C82.3959 18.0717 81.9155 18.1511 81.3667 18.1511C80.7262 18.1511 80.1885 18.0604 79.754 17.879C79.3194 17.6975 78.9648 17.4764 78.6903 17.2157C78.4157 16.9549 78.2099 16.6771 78.0727 16.3823C77.947 16.0761 77.8726 15.804 77.8496 15.5659L79.8055 15.1407Z" fill="#05051B"/>
<path d="M89.2916 9.528H90.9902V11.5349H89.2916V15.0386C89.2916 15.4014 89.3717 15.6565 89.5318 15.8039C89.7035 15.94 89.9551 16.008 90.2867 16.008C90.4241 16.008 90.5613 16.0023 90.6984 15.991C90.8358 15.9797 90.9329 15.9627 90.9902 15.94V17.8109C90.8872 17.8562 90.7271 17.9016 90.5098 17.9469C90.304 17.9923 90.0352 18.015 89.7035 18.015C88.8799 18.015 88.2281 17.7882 87.7477 17.3346C87.2673 16.8811 87.0271 16.2461 87.0271 15.4298V11.5349H85.5002V9.528H85.9292C86.3752 9.528 86.7012 9.40326 86.907 9.15383C87.1242 8.89302 87.233 8.57554 87.233 8.20137V7.02783H89.2916V9.528Z" fill="#05051B"/>
</g>
<defs>
<clipPath id="clip0">
<rect width="91" height="23" fill="white"/>
</clipPath>
</defs>
</svg>
