<?xml version="1.0" standalone="no"?>
<!DOCTYPE svg PUBLIC "-//W3C//DTD SVG 20010904//EN"
 "http://www.w3.org/TR/2001/REC-SVG-20010904/DTD/svg10.dtd">
<svg version="1.0" xmlns="http://www.w3.org/2000/svg"
 width="340.000000pt" height="340.000000pt" viewBox="0 0 340.000000 340.000000"
 preserveAspectRatio="xMidYMid meet">
<metadata>
Created by potrace 1.14, written by Peter Selinger 2001-2017
</metadata>
<g transform="translate(0.000000,340.000000) scale(0.100000,-0.100000)"
fill="#000000" stroke="none">
<path d="M1355 2647 l-350 -182 -3 -722 -2 -723 70 -35 71 -36 64 37 65 36 0
214 c0 165 3 214 13 213 6 0 77 -35 157 -77 l145 -77 3 -311 2 -310 69 -33 68
-34 67 38 66 37 0 253 0 253 153 80 152 79 3 -163 2 -164 71 -35 70 -36 65 36
64 36 -2 361 -3 360 -285 148 -285 149 -5 363 -5 363 -60 32 c-33 18 -67 32
-75 32 -8 0 -172 -82 -365 -182z m405 128 c17 -9 30 -18 30 -20 0 -2 -14 -12
-31 -21 -29 -15 -34 -15 -71 2 l-39 17 28 19 c34 22 46 22 83 3z m-111 -63
l29 -18 -211 -110 -212 -111 -39 20 -39 19 209 109 c115 59 215 108 221 109 7
0 26 -8 42 -18z m171 -330 l0 -338 -35 -17 c-20 -9 -38 -17 -40 -17 -3 0 -5
152 -5 338 l0 338 33 17 c17 8 35 16 40 16 4 1 7 -151 7 -337z m-122 81 l-3
-197 -205 -107 c-113 -59 -208 -108 -213 -108 -4 -1 -6 87 -5 195 l3 196 205
108 c113 59 208 108 213 109 4 0 6 -88 5 -196z m-519 8 l35 -19 -39 -20 c-37
-18 -41 -19 -72 -4 -18 9 -33 19 -33 22 0 6 59 38 70 39 3 0 21 -8 39 -18z
m-59 -781 l0 -690 -40 20 -40 20 0 690 0 690 40 -20 40 -20 0 -690z m106 55
c-2 -5 -18 -18 -35 -28 l-31 -18 0 344 0 343 33 16 32 15 3 -331 c1 -182 0
-335 -2 -341z m474 355 l0 -119 -30 -16 c-16 -8 -31 -15 -35 -15 -3 0 -5 54
-5 120 l0 119 28 15 c15 8 30 15 35 16 4 0 7 -54 7 -120z m-110 -57 l0 -118
-160 -83 -160 -83 0 123 0 123 148 76 c81 43 153 77 160 78 9 1 12 -29 12
-116z m386 -103 c74 -38 195 -102 271 -141 l136 -72 -37 -19 -37 -19 -257 132
c-141 72 -263 137 -270 142 -11 8 -6 15 20 28 18 10 35 18 37 19 2 0 64 -31
137 -70z m-2 -119 c138 -72 259 -136 269 -143 15 -12 -7 -26 -195 -122 l-213
-110 -267 139 c-147 77 -264 143 -259 148 7 7 401 215 410 216 2 1 117 -57
255 -128z m-391 -285 c114 -59 205 -111 202 -115 -2 -5 -18 -14 -35 -21 -33
-14 -4 -27 -429 193 l-144 75 39 20 39 20 60 -32 c33 -18 153 -81 268 -140z
m817 -171 l0 -324 -30 -16 c-16 -8 -31 -15 -35 -15 -3 0 -5 146 -5 325 l0 324
28 15 c15 8 30 15 35 16 4 0 7 -146 7 -325z m-964 128 l264 -138 0 -347 0
-348 -35 17 -35 17 0 308 0 308 -29 18 c-16 9 -122 64 -235 122 l-206 105 0
38 c0 20 3 37 6 37 3 0 125 -62 270 -137z m854 49 l0 -88 -132 -69 c-73 -37
-170 -88 -215 -112 l-83 -45 0 94 0 93 203 106 c111 59 208 107 215 108 9 1
12 -23 12 -87z m-1090 -47 l30 -16 0 -219 0 -219 -30 -16 c-16 -8 -31 -15 -35
-15 -3 0 -5 113 -5 250 0 138 2 250 5 250 4 0 19 -7 35 -15z m1090 -290 l0
-205 -40 20 -40 20 0 165 0 165 38 19 c20 11 38 20 40 21 1 0 2 -92 2 -205z
m-470 -160 l0 -345 -40 -20 -40 -20 0 348 0 348 33 17 c17 8 35 16 40 16 4 1
7 -154 7 -344z"/>
</g>
</svg>
