<svg width="182" height="177" viewBox="0 0 182 177" fill="none" xmlns="http://www.w3.org/2000/svg">
<path d="M163.563 34.3105L153.06 40.1659" stroke="black" stroke-width="3"/>
<path d="M153.551 47.6367L165.373 49.905" stroke="black" stroke-width="3"/>
<path d="M147.071 36.0144L151.358 24.7655" stroke="black" stroke-width="3"/>
<path d="M148.294 53.6584L158.628 59.8335" stroke="black" stroke-width="3"/>
<path d="M138 35.1931L138.181 23.1564" stroke="black" stroke-width="3"/>
<path d="M101.426 47.3469L144.758 44.8127L119.8 80.3067L119.209 69.9851L118.913 64.8242L99.7776 75.4918L95.184 67.2518L114.319 56.5843L110.021 53.5052L101.426 47.3469Z" fill="#F9C449" stroke="black" stroke-width="3"/>
<path d="M13.6003 136.348L57.0061 136.117L30.1997 170.237L30.1565 159.898L30.135 154.729L10.4606 164.366L6.31075 155.894L25.9851 146.257L21.8568 142.954L13.6003 136.348Z" fill="#F9C449" stroke="black" stroke-width="3"/>
<path d="M65.3176 109.816L102.565 87.5291L96.8521 130.542L91.5539 121.664L88.9048 117.225L76.8725 135.533L68.9888 130.351L81.0212 112.044L75.7866 111.301L65.3176 109.816Z" fill="#F9C449" stroke="black" stroke-width="3"/>
</svg>
