<svg width="304" height="382" viewBox="0 0 304 382" fill="none" xmlns="http://www.w3.org/2000/svg">
<path d="M65.57 160.388L5.61 177.608L26.54 186.508L3 207.248L7.1 211.908L11.21 216.568L34.75 195.818L40.94 217.708L65.57 160.388Z" fill="#75BBE5" stroke="black" stroke-width="6" stroke-miterlimit="10" stroke-linecap="round" stroke-linejoin="round"/>
<path d="M223 117.477C223 80.7015 193.186 50.8871 156.41 50.8871C119.635 50.8871 89.8203 80.7015 89.8203 117.477C89.8203 146.671 108.613 171.455 134.747 180.446V205.13H178.083V180.446C204.207 171.455 223 146.671 223 117.477Z" fill="#F9C449" stroke="black" stroke-width="6" stroke-miterlimit="10" stroke-linecap="round" stroke-linejoin="round"/>
<path d="M178.073 205.14H134.737V226.173H178.073V205.14Z" stroke="black" stroke-width="6" stroke-miterlimit="10" stroke-linecap="round" stroke-linejoin="round"/>
<path d="M134.737 238.365H178.073" stroke="black" stroke-width="6" stroke-miterlimit="10" stroke-linecap="round" stroke-linejoin="round"/>
<path d="M142.978 249.726H169.822" stroke="black" stroke-width="6" stroke-miterlimit="10" stroke-linecap="round" stroke-linejoin="round"/>
<path d="M156.58 3V24.0331" stroke="black" stroke-width="6" stroke-miterlimit="10" stroke-linecap="round" stroke-linejoin="round"/>
<path d="M204.957 20.0426L189.105 33.8746" stroke="black" stroke-width="6" stroke-miterlimit="10" stroke-linecap="round" stroke-linejoin="round"/>
<path d="M108.213 20.0426L124.055 33.8746" stroke="black" stroke-width="6" stroke-miterlimit="10" stroke-linecap="round" stroke-linejoin="round"/>
<path d="M156.4 203.37V134.719" stroke="black" stroke-width="6" stroke-miterlimit="10" stroke-linecap="round" stroke-linejoin="round"/>
<path d="M128.646 134.719H184.154" stroke="black" stroke-width="6" stroke-miterlimit="10" stroke-linecap="round" stroke-linejoin="round"/>
<path d="M70.09 266.018H16V367.288H70.09V266.018Z" fill="#EB8A55" stroke="black" stroke-width="6" stroke-miterlimit="10" stroke-linecap="round" stroke-linejoin="round"/>
<path d="M126.43 334.878H196.19C202.95 334.878 208.42 329.298 208.42 322.408C208.42 315.518 200.95 310.918 196.19 309.938L70.0901 283.748V347.398C70.0901 347.398 145.01 377.988 170.49 377.988C192.61 377.988 276.08 331.198 297.67 318.888C300.48 317.288 300.74 313.318 298.15 311.388C288.84 304.448 263.85 294.468 208.42 319.008" fill="#E094BB"/>
<path d="M126.43 334.878H196.19C202.95 334.878 208.42 329.298 208.42 322.408C208.42 315.518 200.95 310.918 196.19 309.938L70.0901 283.748V347.398C70.0901 347.398 145.01 377.988 170.49 377.988C192.61 377.988 276.08 331.198 297.67 318.888C300.48 317.288 300.74 313.318 298.15 311.388C288.84 304.448 263.85 294.468 208.42 319.008" stroke="black" stroke-width="6" stroke-miterlimit="10" stroke-linecap="round" stroke-linejoin="round"/>
</svg>
