<svg width="297" height="366" viewBox="0 0 297 366" fill="none" xmlns="http://www.w3.org/2000/svg">
<path d="M244.28 123.145L270 118.487V95.4615L243.386 90.8808H240.781C238.816 81.7192 235.206 73.1758 230.283 65.5486L232.767 63.065L247.658 41.5851L231.365 25.3151L209.31 40.8897L207.466 42.733C199.839 37.799 191.295 34.1896 182.133 32.2138V28.7368L177.475 3.01831H154.448L149.867 29.6309V32.2028C140.694 34.1675 132.139 37.777 124.511 42.7109L122.69 40.8897L100.624 25.3151L84.3421 41.5961L99.2331 63.076L101.684 65.5265C96.7495 73.1537 93.1288 81.7082 91.1639 90.8918H88.614L62 95.4726V118.498L87.7199 123.156H91.175C93.1398 132.328 96.7605 140.883 101.695 148.521L99.8734 150.342L84.2869 172.396L100.569 188.677L122.05 173.787L124.511 171.326C132.139 176.26 140.694 179.869 149.867 181.834V184.406L154.448 211.018H177.475L182.133 185.3V181.812C191.295 179.836 199.85 176.227 207.466 171.293L209.95 173.776L231.431 188.666L247.713 172.385L232.127 150.331L230.272 148.477C235.195 140.861 238.805 132.306 240.77 123.145H244.28ZM165.994 151.093C141.654 151.093 121.917 131.357 121.917 107.018C121.917 82.6795 141.654 62.9436 165.994 62.9436C190.335 62.9436 210.072 82.6795 210.072 107.018C210.072 131.357 190.346 151.093 165.994 151.093Z" fill="#FD624D" stroke="black" stroke-width="6" stroke-miterlimit="10" stroke-linecap="round" stroke-linejoin="round"/>
<path d="M65.57 143.908L5.61 161.128L26.54 170.028L3 190.768L7.1 195.428L11.21 200.088L34.75 179.338L40.94 201.228L65.57 143.908Z" fill="#75BBE5" stroke="black" stroke-width="5" stroke-miterlimit="10" stroke-linecap="round" stroke-linejoin="round"/>
<path d="M63.09 250.018H9V351.288H63.09V250.018Z" fill="#EB8A55" stroke="black" stroke-width="6" stroke-miterlimit="10" stroke-linecap="round" stroke-linejoin="round"/>
<path d="M119.43 318.878H189.19C195.95 318.878 201.42 313.298 201.42 306.408C201.42 299.518 193.95 294.918 189.19 293.938L63.0901 267.748V331.398C63.0901 331.398 138.01 361.988 163.49 361.988C185.61 361.988 269.08 315.198 290.67 302.888C293.48 301.288 293.74 297.318 291.15 295.388C281.84 288.448 256.85 278.468 201.42 303.008" fill="#E094BB"/>
<path d="M119.43 318.878H189.19C195.95 318.878 201.42 313.298 201.42 306.408C201.42 299.518 193.95 294.918 189.19 293.938L63.0901 267.748V331.398C63.0901 331.398 138.01 361.988 163.49 361.988C185.61 361.988 269.08 315.198 290.67 302.888C293.48 301.288 293.74 297.318 291.15 295.388C281.84 288.448 256.85 278.468 201.42 303.008" stroke="black" stroke-width="6" stroke-miterlimit="10" stroke-linecap="round" stroke-linejoin="round"/>
</svg>
