<svg width="117" height="68" viewBox="0 0 117 68" fill="none" xmlns="http://www.w3.org/2000/svg">
<path d="M42.1136 32.9101L25.1536 23.8926V2.35098C25.1536 2.15235 25.0442 1.96818 24.8654 1.87428L21.4617 0.065004C21.3012 -0.021668 21.1042 -0.021668 20.9437 0.065004L17.54 1.87428L0.2882 11.0471C0.109443 11.141 0 11.3251 0 11.5238V54.4661C0 54.6648 0.109443 54.8489 0.2882 54.9428L3.69187 56.7521C3.77213 56.7954 3.86333 56.8171 3.95089 56.8171C4.03844 56.8171 4.12964 56.7954 4.2099 56.7521L7.61357 54.9428C7.79233 54.8489 7.90177 54.6648 7.90177 54.4661V41.5339L17.2555 46.4995L17.2409 64.8162C17.2409 65.0148 17.3503 65.199 17.5291 65.2929L20.9328 67.1022C21.013 67.1455 21.1042 67.1672 21.1918 67.1672C21.2793 67.1672 21.3705 67.1455 21.4508 67.1022L24.8545 65.2929C25.0332 65.199 25.1427 65.0148 25.1427 64.8162V49.7389L34.4891 44.7697V54.4625C34.4891 54.6611 34.5985 54.8453 34.7773 54.9392L38.181 56.7485C38.2612 56.7918 38.3524 56.8135 38.44 56.8135C38.5275 56.8135 38.6187 56.7918 38.699 56.7485L42.1027 54.9392C42.2814 54.8453 42.3909 54.6611 42.3909 54.4625V33.3868C42.4018 33.1882 42.2924 33.004 42.1136 32.9101ZM21.1991 43.7513L5.10733 35.1961L7.35821 34.0007L23.4427 42.5596L21.1991 43.7513ZM1.83134 11.4551L3.95089 10.3284L6.20176 11.5238L5.59618 11.8452L3.95454 12.7191L1.70731 11.5238L1.83134 11.4551ZM17.7954 2.96852L20.0426 4.16387L7.35821 10.9098L5.10733 9.71449L17.7954 2.96852ZM24.0592 23.8926L21.7499 25.1204V4.48528L24.0592 3.25742V23.8926ZM20.6555 17.0419L7.90542 23.8204V11.8488L20.6555 5.07031V17.0419ZM4.4981 13.6581L6.80735 12.4302V33.0654L4.4981 34.2932V13.6581ZM7.90542 25.0482L17.2482 20.079V27.5111L7.90542 32.4803V25.0482ZM18.3426 19.5012L20.6519 18.2733V25.7055L18.3426 26.9333V19.5012ZM24.6028 41.9456L8.5183 33.3868L21.2027 26.6408L37.2799 35.2033L24.6028 41.9456ZM38.4363 34.5894L22.3592 26.0269L24.6101 24.8315L40.7018 33.3868L38.4363 34.5894ZM23.45 2.35098L23.3223 2.41959L21.2027 3.54633L18.9555 2.35098L19.5611 2.02957L21.2027 1.15563L23.45 2.35098ZM1.09443 12.4302L3.40367 13.6581V55.369L1.09443 54.1411V12.4302ZM6.81099 54.1411L4.50175 55.369V39.7247L6.81099 40.9525V54.1411ZM18.0654 45.6978L4.4981 38.4968V36.1061L20.6482 44.6939V65.7227L18.339 64.4948L18.3536 46.1781C18.3536 45.9759 18.2441 45.7917 18.0654 45.6978ZM21.7463 65.719V44.6903L24.0555 43.4624V64.4912L21.7463 65.719ZM25.15 42.881L37.9037 36.1025V41.729L25.15 48.5074V42.881ZM35.5908 44.1883L37.9001 42.9604V55.369L35.5908 54.1411V44.1883ZM38.9981 55.3654V35.5211L41.3074 34.2932V54.1375L38.9981 55.3654Z" fill="black"/>
<path d="M82.234 60.7786L78.8303 58.9693C78.6698 58.8826 78.4728 58.8826 78.3122 58.9693L74.9086 60.7786C74.7298 60.8725 74.6204 61.0567 74.6204 61.2553V64.8774C74.6204 65.0761 74.7298 65.2602 74.9086 65.3541L78.3122 67.1634C78.3925 67.2067 78.4837 67.2284 78.5713 67.2284C78.6588 67.2284 78.75 67.2067 78.8303 67.1634L82.234 65.3541C82.4127 65.2602 82.5222 65.0761 82.5222 64.8774V61.2553C82.5222 61.0567 82.4127 60.8725 82.234 60.7786ZM78.5713 60.0599L80.8221 61.2553L78.5713 62.4506L76.3204 61.2553L78.5713 60.0599ZM75.7111 62.1617L78.0204 63.3896V65.7803L75.7111 64.5524V62.1617ZM79.1185 65.7803V63.3896L81.4277 62.1617V64.5524L79.1185 65.7803Z" fill="black"/>
<path d="M78.7973 27.8867C78.8046 27.8831 78.8156 27.8795 78.8265 27.8759L82.2302 26.0666C82.4089 25.9727 82.5184 25.7885 82.5184 25.5899V24.214V2.35098C82.5184 2.15235 82.4089 1.96818 82.2302 1.87428L78.8265 0.065004C78.666 -0.021668 78.469 -0.021668 78.3085 0.065004L74.9048 1.87428L57.6566 11.0471C57.4778 11.141 57.3684 11.3251 57.3684 11.5238V54.4661C57.3684 54.6647 57.4778 54.8489 57.6566 54.9428L61.0603 56.7521C61.1405 56.7954 61.2317 56.8171 61.3193 56.8171C61.4068 56.8171 61.498 56.7954 61.5783 56.7521L64.982 54.9428C65.1607 54.8489 65.2702 54.6647 65.2702 54.4661V35.0805L78.7973 27.8867ZM59.1961 11.4551L61.3156 10.3284L63.5629 11.5238L62.9573 11.8452L61.3156 12.7191L59.0684 11.5238L59.1961 11.4551ZM75.1602 2.96852L77.4074 4.16387L64.7193 10.9098L62.4721 9.71448L75.1602 2.96852ZM65.2702 15.4673L74.613 10.4981V21.6391L65.2702 26.6083V15.4673ZM75.7074 21.6427V9.91672L78.0166 8.68887V22.8742L75.7074 21.6427ZM81.4239 5.64812L79.1147 6.87598V4.48527L81.4239 3.25742V5.64812ZM78.0203 7.46101L65.2702 14.2395V11.8488L78.0203 5.07031V7.46101ZM61.8629 13.6581L64.1721 12.4302V14.8209L61.8629 16.0488V13.6581ZM61.8629 17.2802L64.1721 16.0524V30.8155L61.8629 32.0434V17.2802ZM65.2702 27.8398L75.1565 22.5853L77.4037 23.7806L65.2702 30.2341V27.8398ZM81.4239 21.6427L79.1147 22.8706V8.11105L81.4239 6.8832V21.6427ZM61.8629 33.2712L64.1721 32.0434V34.4341L61.8629 35.6619V33.2712ZM65.2702 31.4619L78.0166 24.6835L78.0203 27.0705L65.2702 33.849V31.4619ZM81.4239 25.2613L79.1147 26.4891V26.0233V24.0984L81.4239 22.8706V24.214V25.2613ZM80.8147 2.35098L80.687 2.41959L78.5675 3.54633L76.3203 2.35098L76.9258 2.02957L78.5675 1.15563L80.8147 2.35098ZM58.4592 12.4302L60.7684 13.6581V55.369L58.4592 54.1411V12.4302ZM64.1758 54.1411L61.8665 55.369V36.8898L64.1758 35.6619V54.1411Z" fill="black"/>
<path d="M99.7482 15.4673L116.675 6.4679C116.865 6.38123 116.996 6.19344 116.996 5.97315V2.35098C116.996 2.15235 116.887 1.96818 116.708 1.87428L113.305 0.065004C113.144 -0.021668 112.947 -0.021668 112.786 0.065004L109.383 1.87428L92.1346 11.0435C91.9559 11.1374 91.8464 11.3215 91.8464 11.5202V54.4625C91.8464 54.6611 91.9559 54.8453 92.1346 54.9392L95.5383 56.7485C95.6186 56.7918 95.7098 56.8135 95.7973 56.8135C95.8849 56.8135 95.9761 56.7918 96.0563 56.7485L99.46 54.9392C99.4636 54.9392 99.4637 54.9356 99.4673 54.9356L116.679 45.7845C116.869 45.6978 117 45.51 117 45.2897V41.6748C117 41.4762 116.891 41.292 116.712 41.1981L113.308 39.3888C113.148 39.3021 112.951 39.3021 112.79 39.3888L109.386 41.1981L99.7555 46.319V15.4673H99.7482ZM98.6538 50.5189L96.3445 51.7468V17.2766L98.6538 16.0488V50.5189ZM98.6538 54.1411L96.3445 55.369V52.9783L98.6538 51.7504V54.1411ZM99.7482 51.169L112.495 44.3905V46.7812L99.7446 53.5597V51.169H99.7482ZM93.5975 11.4949L95.7937 10.3284L98.0409 11.5238L97.293 11.921L95.7937 12.7191L93.5428 11.5238L93.5975 11.4949ZM109.638 2.96852L111.885 4.16387L99.1973 10.9098L96.9501 9.71449L109.638 2.96852ZM96.3409 13.6581L98.6501 12.4302V14.8209L96.3409 16.0488V13.6581ZM99.7482 11.8488L112.495 5.07031V7.46102L99.7446 14.2395V11.8488H99.7482ZM113.589 6.87598V4.48528L115.898 3.25742V5.64813L113.589 6.87598ZM115.293 2.35098L115.242 2.37987L113.046 3.54633L110.798 2.35098L111.546 1.95373L113.046 1.15563L115.293 2.35098ZM92.9372 12.4302L95.2465 13.6581V55.369L92.9372 54.1411V12.4302ZM113.589 46.1998V43.8091L115.898 42.5812V44.9719L113.589 46.1998ZM115.293 41.6748L115.242 41.7037L113.046 42.8701L110.798 41.6748L111.71 41.1909L113.049 40.4794L115.293 41.6748ZM109.638 42.2887L111.885 43.4841L99.7446 49.9375V47.5468L109.638 42.2887Z" fill="black"/>
</svg>
