<svg width="36" height="56" viewBox="0 0 36 56" fill="none" xmlns="http://www.w3.org/2000/svg">
<path d="M35.7257 27.3977L21.3382 19.9362V2.1118C21.3382 1.94745 21.2454 1.79505 21.0938 1.71736L18.2064 0.220291C18.0702 0.148575 17.9031 0.148575 17.7669 0.220291L14.8795 1.71736L0.244485 9.30731C0.0928423 9.385 0 9.5374 0 9.70175V45.234C0 45.3984 0.0928423 45.5508 0.244485 45.6285L3.13188 47.1255C3.19996 47.1614 3.27733 47.1793 3.35161 47.1793C3.42588 47.1793 3.50325 47.1614 3.57133 47.1255L6.45873 45.6285C6.61037 45.5508 6.70321 45.3984 6.70321 45.234V34.5334L14.6381 38.6421L14.6258 53.7981C14.6258 53.9625 14.7186 54.1149 14.8702 54.1926L17.7576 55.6896C17.8257 55.7255 17.9031 55.7434 17.9774 55.7434C18.0516 55.7434 18.129 55.7255 18.1971 55.6896L21.0845 54.1926C21.2361 54.1149 21.329 53.9625 21.329 53.7981V41.3225L29.2577 37.2108V45.2311C29.2577 45.3954 29.3505 45.5478 29.5022 45.6255L32.3896 47.1226C32.4577 47.1584 32.535 47.1764 32.6093 47.1764C32.6836 47.1764 32.7609 47.1584 32.829 47.1226L35.7164 45.6255C35.8681 45.5478 35.9609 45.3954 35.9609 45.2311V27.7921C35.9702 27.6278 35.8773 27.4754 35.7257 27.3977ZM17.9835 36.3681L4.33264 29.2892L6.24209 28.3001L19.8868 35.3821L17.9835 36.3681ZM1.55356 9.64497L3.35161 8.71266L5.26106 9.70175L4.74733 9.96769L3.3547 10.6908L1.44834 9.70175L1.55356 9.64497ZM15.0962 2.62278L17.0025 3.61186L6.24209 9.19376L4.33264 8.20467L15.0962 2.62278ZM20.4098 19.9362L18.4509 20.9522V3.87781L20.4098 2.86183V19.9362ZM17.5224 14.2677L6.70631 19.8765V9.97068L17.5224 4.36189V14.2677V14.2677ZM3.81582 11.4678L5.77479 10.4518V27.5262L3.81582 28.5421V11.4678ZM6.70631 20.8924L14.6319 16.7807V22.9304L6.70631 27.0421V20.8924ZM15.5604 16.3026L17.5193 15.2866V21.4363L15.5604 22.4523V16.3026ZM20.8709 34.8741L7.22622 27.7921L17.9866 22.2102L31.6252 29.2952L20.8709 34.8741ZM32.6062 28.7872L18.9677 21.7022L20.8771 20.7131L34.528 27.7921L32.6062 28.7872ZM19.893 2.1118L19.7847 2.16858L17.9866 3.10088L16.0803 2.1118L16.594 1.84585L17.9866 1.12272L19.893 2.1118ZM0.928423 10.4518L2.88739 11.4678V45.9811L0.928423 44.9651V10.4518ZM5.77788 44.9651L3.81891 45.9811V33.0363L5.77788 34.0523V44.9651ZM15.3252 37.9788L3.81582 32.0204V30.0422L17.5162 37.1481V54.5482L15.5573 53.5322L15.5696 38.3762C15.5696 38.2089 15.4768 38.0565 15.3252 37.9788ZM18.4478 54.5452V37.1451L20.4067 36.1291V53.5292L18.4478 54.5452ZM21.3352 35.648L32.1544 30.0392V34.6948L21.3352 40.3036V35.648ZM30.1923 36.7297L32.1513 35.7137V45.9811L30.1923 44.9651V36.7297ZM33.0828 45.9781V29.5581L35.0418 28.5421V44.9621L33.0828 45.9781Z" fill="black"/>
</svg>
