<svg width="89" height="111" viewBox="0 0 89 111" fill="none" xmlns="http://www.w3.org/2000/svg">
<path d="M59.7563 45.6245C60.5572 45.4128 61.0349 44.5919 60.8232 43.791L54.1769 18.6436C53.9652 17.8427 53.1444 17.365 52.3434 17.5767L18.7323 26.4599C17.9314 26.6715 17.4537 27.4924 17.6654 28.2933L20.9324 40.6546C21.8089 43.971 19.9805 47.4499 16.7653 48.459L16.7644 48.4593C13.2755 49.5569 9.65148 47.5363 8.74412 44.1031L5.03623 30.0737C3.3042 23.5202 7.7465 16.3927 15.3036 14.3954L49.3638 5.39357C56.9208 3.3963 64.3046 7.39825 66.0366 13.9517L73.4524 42.0107C75.1844 48.5641 70.7421 55.6916 63.185 57.6889L53.7273 60.1885C52.9264 60.4002 52.4487 61.2211 52.6604 62.022L54.6595 69.5859C55.5666 73.0182 53.4101 76.567 49.8397 77.3357C46.5421 78.0432 43.2338 75.9198 42.3589 72.6096L38.154 56.6995C37.4252 53.9418 39.0876 51.0871 41.8958 50.3449L59.7563 45.6245Z" fill="#ABE5D3" stroke="black" stroke-width="3" stroke-linejoin="round"/>
<path d="M61.3256 91.7628C62.3164 95.5118 60.0581 99.3813 56.2506 100.388C52.4431 101.394 48.5679 99.1454 47.5771 95.3965C46.5863 91.6475 48.8446 87.778 52.6521 86.7717C56.4595 85.7654 60.3347 88.0138 61.3256 91.7628Z" fill="#ABE5D3" stroke="black" stroke-width="3" stroke-linejoin="round"/>
</svg>
