<svg width="84" height="108" viewBox="0 0 84 108" fill="none" xmlns="http://www.w3.org/2000/svg">
<path d="M57.8749 45.2829C58.6873 45.1209 59.2146 44.331 59.0526 43.5186L53.9663 18.0099C53.8043 17.1975 53.0143 16.6702 52.2019 16.8322L18.1079 23.6304C17.2955 23.7924 16.7682 24.5823 16.9302 25.3947L19.4304 37.9336C20.1012 41.2976 18.0622 44.6574 14.791 45.4668L14.79 45.4671C11.2402 46.3479 7.74739 44.1081 7.053 40.6256L4.21539 26.3946C2.88988 19.747 7.76233 12.9063 15.428 11.3778L49.9775 4.48879C57.6432 2.9603 64.7667 7.409 66.0922 14.0566L71.7674 42.5187C73.0929 49.1663 68.2204 56.007 60.5548 57.5355L50.9612 59.4484C50.1488 59.6104 49.6215 60.4003 49.7835 61.2127L51.3134 68.8853C52.0076 72.3669 49.6368 75.7764 46.0259 76.3238C42.691 76.8271 39.5196 74.5042 38.8501 71.1464L35.6321 55.0077C35.0743 52.2104 36.9092 49.4634 39.7578 48.8954L57.8749 45.2829Z" fill="#E094BB" stroke="black" stroke-width="3" stroke-linejoin="round"/>
<path d="M56.602 91.4304C57.3603 95.2332 54.8681 98.9564 51.006 99.7265C47.1438 100.497 43.4143 98.014 42.656 94.2111C41.8977 90.4083 44.3898 86.6851 48.252 85.915C52.1142 85.1449 55.8437 87.6275 56.602 91.4304Z" fill="#E094BB" stroke="black" stroke-width="3" stroke-linejoin="round"/>
</svg>
