<svg width="67" height="97" viewBox="0 0 67 97" fill="none" xmlns="http://www.w3.org/2000/svg">
<path d="M51.305 43.0509C52.1334 43.0509 52.805 42.3793 52.805 41.5509V15.5401C52.805 14.7116 52.1334 14.0401 51.305 14.0401L16.5398 14.0401C15.7114 14.0401 15.0398 14.7116 15.0398 15.5401V28.3258C15.0398 31.756 12.3833 34.6522 9.01693 34.8063L9.01595 34.8064C5.36244 34.9761 2.375 32.0965 2.375 28.5455L2.375 14.0343C2.375 7.25579 8.49104 1.5 16.3076 1.5L51.5373 1.5C59.3538 1.5 65.4699 7.25579 65.4699 14.0343V43.0567C65.4699 49.8351 59.3538 55.5909 51.5373 55.5909H41.7548C40.9264 55.5909 40.2548 56.2625 40.2548 57.0909V64.9145C40.2548 68.4647 37.2631 71.3447 33.6148 71.1755C30.2459 71.017 27.59 68.1187 27.59 64.6948L27.59 48.2385C27.59 45.3861 29.9266 43.0509 32.8313 43.0509H51.305Z" fill="#FD624D" stroke="black" stroke-width="3" stroke-linejoin="round"/>
<path d="M41.0325 88.0585C41.0325 91.9362 37.8605 95.1002 33.9223 95.1002C29.9841 95.1002 26.812 91.9362 26.812 88.0585C26.812 84.1808 29.9841 81.0168 33.9223 81.0168C37.8605 81.0168 41.0325 84.1808 41.0325 88.0585Z" fill="#FD624D" stroke="black" stroke-width="3" stroke-linejoin="round"/>
</svg>
