<svg width="88" height="111" viewBox="0 0 88 111" fill="none" xmlns="http://www.w3.org/2000/svg">
<path d="M61.8424 54.8368C62.6464 55.0363 63.46 54.5462 63.6595 53.7422L69.9239 28.497C70.1234 27.693 69.6334 26.8794 68.8293 26.6799L35.0875 18.3071C34.2835 18.1076 33.4699 18.5976 33.2704 19.4017L30.1911 31.811C29.3649 35.1403 26.089 37.3115 22.7847 36.6503L22.7837 36.6501C19.1969 35.9349 16.9909 32.4206 17.8461 28.9741L21.341 14.89C22.9735 8.31107 30.2957 4.19768 37.8822 6.08021L72.0749 14.5649C79.6614 16.4474 84.2112 23.5068 82.5786 30.0857L75.5889 58.2539C73.9564 64.8328 66.6341 68.9462 59.0477 67.0637L49.5532 64.7077C48.7492 64.5082 47.9356 64.9982 47.7361 65.8023L45.8519 73.3956C44.9969 76.8413 41.3995 78.9159 37.8994 77.8731C34.6679 76.9079 32.7881 73.4552 33.6127 70.1322L37.5761 54.1602C38.263 51.3917 41.0933 49.688 43.9125 50.3876L61.8424 54.8368Z" fill="#F9C449" stroke="black" stroke-width="3" stroke-linejoin="round"/>
<path d="M41.0327 96.0457C40.0988 99.8093 36.2581 102.116 32.4358 101.168C28.6135 100.219 26.2968 96.3845 27.2307 92.6209C28.1646 88.8573 32.0053 86.5504 35.8276 87.4989C39.6499 88.4474 41.9666 92.2822 41.0327 96.0457Z" fill="#F9C449" stroke="black" stroke-width="3" stroke-linejoin="round"/>
</svg>
