<svg width="415" height="242" viewBox="0 0 415 242" fill="none" xmlns="http://www.w3.org/2000/svg">
<path d="M149.377 118.174L89.22 85.8708V8.7022C89.22 7.99067 88.8318 7.33089 88.1978 6.99453L76.1249 0.513138C75.5556 0.202652 74.8568 0.202652 74.2875 0.513138L62.2146 6.99453L1.02225 39.8543C0.388194 40.1906 0 40.8504 0 41.5619V195.395C0 196.106 0.388194 196.766 1.02225 197.102L13.0951 203.584C13.3798 203.739 13.7033 203.817 14.0138 203.817C14.3244 203.817 14.6479 203.739 14.9325 203.584L27.0054 197.102C27.6394 196.766 28.0276 196.106 28.0276 195.395V149.068L61.2053 166.856L61.1536 232.472C61.1536 233.183 61.5418 233.843 62.1758 234.18L74.2487 240.661C74.5333 240.816 74.8568 240.894 75.1674 240.894C75.4779 240.894 75.8014 240.816 76.0861 240.661L88.159 234.18C88.793 233.843 89.1812 233.183 89.1812 232.472V178.46L122.333 160.659V195.382C122.333 196.093 122.721 196.753 123.355 197.089L135.428 203.571C135.713 203.726 136.036 203.804 136.347 203.804C136.657 203.804 136.981 203.726 137.266 203.571L149.338 197.089C149.972 196.753 150.361 196.093 150.361 195.382V119.882C150.399 119.17 150.011 118.511 149.377 118.174ZM75.1933 157.011L18.1157 126.363L26.0996 122.081L83.1513 152.742L75.1933 157.011ZM6.49579 41.3161L14.0138 37.2798L21.9977 41.5619L19.8497 42.7133L14.0268 45.8441L6.05583 41.5619L6.49579 41.3161ZM63.1204 10.9144L71.0913 15.1965L26.0996 39.3627L18.1157 35.0805L63.1204 10.9144ZM85.3381 85.8708L77.1472 90.2694V16.3479L85.3381 11.9494V85.8708ZM73.2652 61.3295L28.0406 85.6121V42.7263L73.2652 18.4437V61.3295ZM15.9548 49.2076L24.1457 44.8091V118.731L15.9548 123.129V49.2076ZM28.0406 90.0107L61.1794 72.2095V98.8336L28.0406 116.635V90.0107ZM65.0614 70.1396L73.2523 65.741V92.3652L65.0614 96.7637V70.1396ZM87.2661 150.542L30.2145 119.882L75.2062 95.7158L132.232 126.389L87.2661 150.542ZM136.334 124.19L79.3081 93.5165L87.292 89.2344L144.37 119.882L136.334 124.19ZM83.1771 8.7022L82.7242 8.948L75.2062 12.9843L67.2353 8.7022L69.3833 7.55081L75.2062 4.42008L83.1771 8.7022ZM3.88194 44.8091L12.0728 49.2076V198.629L3.88194 194.23V44.8091ZM24.1586 194.23L15.9677 198.629V142.586L24.1586 146.985V194.23ZM64.078 163.984L15.9548 138.188V129.623L73.2394 160.387V235.719L65.0485 231.32L65.1002 165.704C65.1002 164.98 64.712 164.32 64.078 163.984ZM77.1342 235.706V160.374L85.3251 155.976V231.308L77.1342 235.706ZM89.2071 153.893L134.445 129.611V149.766L89.2071 174.049V153.893ZM126.241 158.576L134.432 154.178V198.629L126.241 194.23V158.576ZM138.327 198.616V127.528L146.518 123.129V194.217L138.327 198.616Z" fill="black"/>
<path d="M291.684 218.008L279.611 211.527C279.042 211.216 278.343 211.216 277.774 211.527L265.701 218.008C265.067 218.344 264.679 219.004 264.679 219.716V232.691C264.679 233.403 265.067 234.063 265.701 234.399L277.774 240.881C278.059 241.036 278.382 241.113 278.693 241.113C279.003 241.113 279.327 241.036 279.611 240.881L291.684 234.399C292.318 234.063 292.707 233.403 292.707 232.691V219.716C292.707 219.004 292.318 218.344 291.684 218.008ZM278.693 215.434L286.677 219.716L278.693 223.998L270.709 219.716L278.693 215.434ZM268.548 222.963L276.739 227.361V235.926L268.548 231.527V222.963ZM280.634 235.926V227.361L288.825 222.963V231.527L280.634 235.926Z" fill="black"/>
<path d="M279.495 100.179C279.521 100.166 279.559 100.153 279.598 100.14L291.671 93.6589C292.305 93.3225 292.693 92.6627 292.693 91.9512V87.0222V8.7022C292.693 7.99067 292.305 7.33089 291.671 6.99453L279.598 0.513138C279.029 0.202652 278.33 0.202652 277.761 0.513138L265.688 6.99453L204.508 39.8543C203.874 40.1906 203.486 40.8504 203.486 41.5619V195.395C203.486 196.106 203.874 196.766 204.508 197.102L216.581 203.584C216.866 203.739 217.189 203.817 217.5 203.817C217.811 203.817 218.134 203.739 218.419 203.584L230.492 197.102C231.126 196.766 231.514 196.106 231.514 195.395V125.949L279.495 100.179ZM209.969 41.3161L217.487 37.2798L225.458 41.5619L223.31 42.7133L217.487 45.8441L209.516 41.5619L209.969 41.3161ZM266.594 10.9144L274.565 15.1965L229.56 39.3627L221.589 35.0806L266.594 10.9144ZM231.514 55.6891L264.653 37.8879V77.7982L231.514 95.5994V55.6891ZM268.535 77.8112V35.805L276.726 31.4065V82.2226L268.535 77.8112ZM288.811 20.5136L280.62 24.9121V16.3479L288.811 11.9494V20.5136ZM276.739 27.0079L231.514 51.2905V42.7263L276.739 18.4437V27.0079ZM219.428 49.2077L227.619 44.8091V53.3733L219.428 57.7719V49.2077ZM219.428 62.1834L227.619 57.7848V110.671L219.428 115.069V62.1834ZM231.514 100.011L266.581 81.1877L274.552 85.4698L231.514 108.588V100.011ZM288.811 77.8112L280.62 82.2097V29.3366L288.811 24.938V77.8112ZM219.428 119.468L227.619 115.069V123.634L219.428 128.032V119.468ZM231.514 112.987L276.726 88.704L276.739 97.2553L231.514 121.538V112.987ZM288.811 90.7739L280.62 95.1725V93.5036V86.6083L288.811 82.2097V87.0222V90.7739ZM286.65 8.7022L286.198 8.948L278.68 12.9843L270.709 8.7022L272.857 7.55082L278.68 4.42008L286.65 8.7022ZM207.355 44.8091L215.546 49.2077V198.629L207.355 194.23V44.8091ZM227.632 194.23L219.441 198.629V132.431L227.632 128.032V194.23Z" fill="black"/>
<path d="M353.808 55.6891L413.848 23.4503C414.521 23.1398 414.987 22.4671 414.987 21.6779V8.70221C414.987 7.99067 414.599 7.33089 413.965 6.99453L401.892 0.513138C401.323 0.202652 400.624 0.202652 400.055 0.513138L387.982 6.99453L326.802 39.8414C326.168 40.1777 325.78 40.8375 325.78 41.549V195.382C325.78 196.093 326.168 196.753 326.802 197.09L338.875 203.571C339.16 203.726 339.483 203.804 339.794 203.804C340.104 203.804 340.428 203.726 340.713 203.571L352.785 197.09C352.798 197.09 352.798 197.077 352.811 197.077L413.861 164.294C414.534 163.984 415 163.311 415 162.522V149.572C415 148.861 414.612 148.201 413.978 147.865L401.905 141.383C401.336 141.073 400.637 141.073 400.067 141.383L387.995 147.865L353.834 166.209V55.6891H353.808ZM349.926 181.255L341.735 185.653V62.1705L349.926 57.7719V181.255ZM349.926 194.23L341.735 198.629V190.065L349.926 185.666V194.23ZM353.808 183.583L399.019 159.301V167.865L353.795 192.148V183.583H353.808ZM331.991 41.4585L339.781 37.2799L347.752 41.562L345.099 42.985L339.781 45.8441L331.797 41.562L331.991 41.4585ZM388.888 10.9144L396.858 15.1965L351.854 39.3627L343.883 35.0806L388.888 10.9144ZM341.722 49.2077L349.913 44.8091V53.3734L341.722 57.7719V49.2077ZM353.808 42.7263L399.019 18.4437V27.0079L353.795 51.2905V42.7263H353.808ZM402.901 24.9122V16.3479L411.092 11.9494V20.5136L402.901 24.9122ZM408.944 8.70221L408.763 8.8057L400.973 12.9843L393.002 8.70221L395.655 7.27914L400.973 4.42009L408.944 8.70221ZM329.649 44.8091L337.84 49.2077V198.629L329.649 194.23V44.8091ZM402.901 165.782V157.218L411.092 152.819V161.384L402.901 165.782ZM408.944 149.572L408.763 149.676L400.973 153.854L393.002 149.572L396.237 147.839L400.986 145.29L408.944 149.572ZM388.888 151.772L396.858 156.054L353.795 179.172V170.608L388.888 151.772Z" fill="black"/>
</svg>
