<svg width="702" height="494" viewBox="0 0 702 494" fill="none" xmlns="http://www.w3.org/2000/svg">
<path d="M253.441 111.753L265.7 123.012" stroke="black" stroke-width="3" stroke-miterlimit="10" stroke-linecap="round" stroke-linejoin="round"/>
<path d="M265.7 111.753L253.441 123.012" stroke="black" stroke-width="3" stroke-miterlimit="10" stroke-linecap="round" stroke-linejoin="round"/>
<path d="M611.884 118.828H93.0865V445.552H611.884V118.828Z" fill="#EFC360" stroke="black" stroke-width="3" stroke-miterlimit="10" stroke-linecap="round" stroke-linejoin="round"/>
<path d="M580.202 98.0369H404.959V207.935H580.202V98.0369Z" fill="black" stroke="black" stroke-width="3" stroke-miterlimit="10" stroke-linecap="round" stroke-linejoin="round"/>
<path d="M616.834 327.733H98.0369V460.403H616.834V327.733Z" fill="#725B9C" stroke="black" stroke-width="3" stroke-miterlimit="10" stroke-linecap="round" stroke-linejoin="round"/>
<path d="M527.987 446.542H194.964C190.646 446.542 187.143 443.198 187.143 439.076V436.641H535.648V439.228C535.648 443.264 532.22 446.542 527.987 446.542Z" fill="black" stroke="black" stroke-width="3" stroke-miterlimit="10" stroke-linecap="round" stroke-linejoin="round"/>
<path d="M476.244 356.445H251.498V225.756H466.534C471.9 225.756 476.244 230.107 476.244 235.469V356.445Z" fill="#557EB8" stroke="black" stroke-width="3" stroke-miterlimit="10" stroke-linecap="round" stroke-linejoin="round"/>
<path d="M585.152 101.997H409.909V202.984H585.152V101.997Z" fill="white" stroke="black" stroke-width="3" stroke-miterlimit="10" stroke-linecap="round" stroke-linejoin="round"/>
<path d="M680.199 170.312H544.559V269.319H680.199V170.312Z" fill="black" stroke="black" stroke-width="3" stroke-miterlimit="10" stroke-linecap="round" stroke-linejoin="round"/>
<path d="M685.149 177.243H549.509V265.359H685.149V177.243Z" fill="#55B587" stroke="black" stroke-width="3" stroke-miterlimit="10" stroke-linecap="round" stroke-linejoin="round"/>
<path d="M71.305 282.19H2V335.654H71.305V282.19Z" stroke="black" stroke-width="3" stroke-miterlimit="10" stroke-linecap="round" stroke-linejoin="round"/>
<path d="M283.18 87.146H207.935V139.62H283.18V87.146Z" fill="white" stroke="black" stroke-width="3" stroke-miterlimit="10" stroke-linecap="round" stroke-linejoin="round"/>
<path d="M536.638 427.73H188.133L251.763 356.445H476.778L536.638 427.73Z" fill="#75BBE5" stroke="black" stroke-width="3" stroke-miterlimit="10" stroke-linecap="round" stroke-linejoin="round"/>
<path d="M528.977 438.621H195.954C191.636 438.621 188.133 434.943 188.133 430.408V427.73H536.638V430.576C536.638 435.015 533.21 438.621 528.977 438.621Z" fill="#557EB8" stroke="black" stroke-width="3" stroke-miterlimit="10" stroke-linecap="round" stroke-linejoin="round"/>
<path d="M493.075 400.009H231.696L263.389 363.376H463.199L493.075 400.009Z" fill="white" stroke="black" stroke-width="3" stroke-miterlimit="10" stroke-linecap="round" stroke-linejoin="round"/>
<path d="M234.667 398.751H490.105L462.878 365.031L234.667 398.751Z" fill="#EFC360"/>
<path d="M362.386 363.376V400.009" stroke="black" stroke-width="3" stroke-miterlimit="10" stroke-linecap="round" stroke-linejoin="round"/>
<path d="M345.555 363.376L339.614 400.009" stroke="black" stroke-width="3" stroke-miterlimit="10" stroke-linecap="round" stroke-linejoin="round"/>
<path d="M328.723 363.376L313.872 400.009" stroke="black" stroke-width="3" stroke-miterlimit="10" stroke-linecap="round" stroke-linejoin="round"/>
<path d="M308.922 363.376L288.13 400.009" stroke="black" stroke-width="3" stroke-miterlimit="10" stroke-linecap="round" stroke-linejoin="round"/>
<path d="M288.13 363.376L258.428 400.009" stroke="black" stroke-width="3" stroke-miterlimit="10" stroke-linecap="round" stroke-linejoin="round"/>
<path d="M380.207 363.376L386.147 400.009" stroke="black" stroke-width="3" stroke-miterlimit="10" stroke-linecap="round" stroke-linejoin="round"/>
<path d="M396.048 363.376L410.899 400.009" stroke="black" stroke-width="3" stroke-miterlimit="10" stroke-linecap="round" stroke-linejoin="round"/>
<path d="M415.85 363.376L437.631 400.009" stroke="black" stroke-width="3" stroke-miterlimit="10" stroke-linecap="round" stroke-linejoin="round"/>
<path d="M437.631 363.376L464.363 400.009" stroke="black" stroke-width="3" stroke-miterlimit="10" stroke-linecap="round" stroke-linejoin="round"/>
<path d="M258.428 369.316H468.323" stroke="black" stroke-width="3" stroke-miterlimit="10" stroke-linecap="round" stroke-linejoin="round"/>
<path d="M250.508 378.227H475.254" stroke="black" stroke-width="3" stroke-miterlimit="10" stroke-linecap="round" stroke-linejoin="round"/>
<path d="M242.587 388.128H482.679" stroke="black" stroke-width="3" stroke-miterlimit="10" stroke-linecap="round" stroke-linejoin="round"/>
<path d="M468.323 234.667H260.408V348.525H468.323V234.667Z" fill="#E094BB" stroke="black" stroke-width="3" stroke-miterlimit="10" stroke-linecap="round" stroke-linejoin="round"/>
<path d="M536.638 285.16H441.592V344.564H536.638V285.16Z" fill="#B6D5EB" stroke="black" stroke-width="3" stroke-miterlimit="10" stroke-linecap="round" stroke-linejoin="round"/>
<path d="M404.959 417.83H318.823L325.554 405.949H398.339L404.959 417.83Z" fill="#EB8A55" stroke="black" stroke-width="3" stroke-miterlimit="10" stroke-linecap="round" stroke-linejoin="round"/>
<path d="M77.2454 277.24H7.94043V329.714H77.2454V277.24Z" fill="black" stroke="black" stroke-width="3" stroke-miterlimit="10" stroke-linecap="round" stroke-linejoin="round"/>
<path d="M71.305 282.19H2V335.654H71.305V282.19Z" fill="#E094BB" stroke="black" stroke-width="3" stroke-miterlimit="10" stroke-linecap="round" stroke-linejoin="round"/>
<path d="M28.7319 300.011H13.8809V335.654H28.7319V300.011Z" fill="#55B587" stroke="black" stroke-width="3" stroke-miterlimit="10" stroke-linecap="round" stroke-linejoin="round"/>
<path d="M44.5731 288.13H28.7319V335.654H44.5731V288.13Z" fill="#EFC360" stroke="black" stroke-width="3" stroke-miterlimit="10" stroke-linecap="round" stroke-linejoin="round"/>
<path d="M59.4241 312.882H44.573V335.654H59.4241V312.882Z" fill="#557EB8" stroke="black" stroke-width="3" stroke-miterlimit="10" stroke-linecap="round" stroke-linejoin="round"/>
<path d="M56.6584 297.041H63.3844L36.6228 322.894L23.4452 310.14L2 335.654" stroke="black" stroke-width="3" stroke-miterlimit="10" stroke-linecap="round" stroke-linejoin="round"/>
<path d="M63.3844 302.981V297.041" stroke="black" stroke-width="3" stroke-miterlimit="10" stroke-linecap="round" stroke-linejoin="round"/>
<path d="M527.185 321.793H451.045C449.66 321.793 448.522 320.682 448.522 319.318C448.522 317.959 449.654 316.843 451.045 316.843H527.185C528.57 316.843 529.708 317.954 529.708 319.318C529.708 320.682 528.57 321.793 527.185 321.793Z" fill="#55B587" stroke="black" stroke-width="3" stroke-miterlimit="10" stroke-linecap="round" stroke-linejoin="round"/>
<path d="M527.18 336.644H451.045C449.66 336.644 448.522 335.533 448.522 334.169C448.522 332.81 449.654 331.694 451.045 331.694H527.185C528.57 331.694 529.708 332.805 529.708 334.169C529.703 335.533 528.565 336.644 527.18 336.644Z" fill="#557EB8" stroke="black" stroke-width="3" stroke-miterlimit="10" stroke-linecap="round" stroke-linejoin="round"/>
<path d="M527.18 305.952H451.045C449.66 305.952 448.522 304.841 448.522 303.477C448.522 302.118 449.654 301.001 451.045 301.001H527.185C528.57 301.001 529.708 302.112 529.708 303.477C529.703 304.841 528.565 305.952 527.18 305.952Z" fill="#E96C56" stroke="black" stroke-width="3" stroke-miterlimit="10" stroke-linecap="round" stroke-linejoin="round"/>
<path d="M462.854 301.001L460.403 294.071L465.353 294.087L462.854 301.001Z" fill="white" stroke="black" stroke-width="3" stroke-miterlimit="10" stroke-linecap="round" stroke-linejoin="round"/>
<path d="M483.643 316.843L481.194 309.912L486.145 309.928L483.643 316.843Z" fill="white" stroke="black" stroke-width="3" stroke-miterlimit="10" stroke-linecap="round" stroke-linejoin="round"/>
<path d="M524.236 331.694L521.787 324.763L526.737 324.779L524.236 331.694Z" fill="white" stroke="black" stroke-width="3" stroke-miterlimit="10" stroke-linecap="round" stroke-linejoin="round"/>
<path d="M585.152 91.1064H409.909V101.997H585.152V91.1064Z" fill="#725B9C" stroke="black" stroke-width="3" stroke-miterlimit="10" stroke-linecap="round" stroke-linejoin="round"/>
<path d="M563.37 111.898V91.1064L585.152 111.898H563.37Z" fill="#E96C56" stroke="black" stroke-width="3" stroke-miterlimit="10" stroke-linecap="round" stroke-linejoin="round"/>
<path d="M463.848 119.354H452.099L450.226 115.338C449.247 113.236 447.139 111.898 444.82 111.898H423.688C420.455 111.898 417.83 114.521 417.83 117.752V125.805V129.858V150C417.83 153.548 420.735 156.451 424.285 156.451H463.848C467.399 156.451 470.304 153.548 470.304 150V125.805C470.304 122.257 467.399 119.354 463.848 119.354Z" fill="#80D1B6" stroke="black" stroke-width="3" stroke-miterlimit="10" stroke-linecap="round" stroke-linejoin="round"/>
<path d="M529.193 119.354H517.443L515.571 115.338C514.592 113.236 512.483 111.898 510.165 111.898H489.033C485.8 111.898 483.175 114.521 483.175 117.752V125.805V129.858V150C483.175 153.548 486.08 156.451 489.63 156.451H529.193C532.743 156.451 535.648 153.548 535.648 150V125.805C535.648 122.257 532.743 119.354 529.193 119.354Z" fill="#E094BB" stroke="black" stroke-width="3" stroke-miterlimit="10" stroke-linecap="round" stroke-linejoin="round"/>
<path d="M470.304 162.392H417.83V170.312H470.304V162.392Z" fill="#557EB8" stroke="black" stroke-width="3" stroke-miterlimit="10" stroke-linecap="round" stroke-linejoin="round"/>
<path d="M535.648 161.401H483.175V169.322H535.648V161.401Z" fill="#557EB8" stroke="black" stroke-width="3" stroke-miterlimit="10" stroke-linecap="round" stroke-linejoin="round"/>
<path d="M254.468 101.007H218.826V127.739H254.468V101.007Z" fill="#75BBE5" stroke="black" stroke-width="3" stroke-miterlimit="10" stroke-linecap="round" stroke-linejoin="round"/>
<path d="M258.428 98.0369H251.498V103.977H258.428V98.0369Z" fill="white" stroke="black" stroke-width="3" stroke-miterlimit="10" stroke-linecap="round" stroke-linejoin="round"/>
<path d="M221.796 98.0369H215.855V103.977H221.796V98.0369Z" fill="white" stroke="black" stroke-width="3" stroke-miterlimit="10" stroke-linecap="round" stroke-linejoin="round"/>
<path d="M221.796 124.769H215.855V130.709H221.796V124.769Z" fill="white" stroke="black" stroke-width="3" stroke-miterlimit="10" stroke-linecap="round" stroke-linejoin="round"/>
<path d="M258.428 124.769H251.498V130.709H258.428V124.769Z" fill="white" stroke="black" stroke-width="3" stroke-miterlimit="10" stroke-linecap="round" stroke-linejoin="round"/>
<path d="M659.652 247.994H628.024C624.985 247.994 622.499 245.509 622.499 242.47V234.929C622.499 231.89 624.985 229.405 628.024 229.405H670.406C673.445 229.405 675.931 231.89 675.931 234.929V242.47C675.931 245.509 673.445 247.994 670.406 247.994H666.578" fill="#E094BB"/>
<path d="M659.652 247.994H628.024C624.985 247.994 622.499 245.509 622.499 242.47V234.929C622.499 231.89 624.985 229.405 628.024 229.405H670.406C673.445 229.405 675.931 231.89 675.931 234.929V242.47C675.931 245.509 673.445 247.994 670.406 247.994H666.578" stroke="black" stroke-width="3" stroke-miterlimit="10" stroke-linecap="round" stroke-linejoin="round"/>
<path d="M659.652 247.994L666.578 256.174V247.994" fill="#E094BB"/>
<path d="M659.652 247.994L666.578 256.174V247.994" stroke="black" stroke-width="3" stroke-miterlimit="10" stroke-linecap="round" stroke-linejoin="round"/>
<path d="M661.329 203.987H629.701C626.662 203.987 624.176 201.501 624.176 198.462V190.921C624.176 187.882 626.662 185.397 629.701 185.397H672.083C675.122 185.397 677.608 187.882 677.608 190.921V198.462C677.608 201.501 675.122 203.987 672.083 203.987H668.255" fill="#EFC360"/>
<path d="M661.329 203.987H629.701C626.662 203.987 624.176 201.501 624.176 198.462V190.921C624.176 187.882 626.662 185.397 629.701 185.397H672.083C675.122 185.397 677.608 187.882 677.608 190.921V198.462C677.608 201.501 675.122 203.987 672.083 203.987H668.255" stroke="black" stroke-width="3" stroke-miterlimit="10" stroke-linecap="round" stroke-linejoin="round"/>
<path d="M661.329 203.987L668.255 212.167V203.987" fill="#EFC360"/>
<path d="M661.329 203.987L668.255 212.167V203.987" stroke="black" stroke-width="3" stroke-miterlimit="10" stroke-linecap="round" stroke-linejoin="round"/>
<path d="M574.549 229.117H606.176C609.216 229.117 611.702 226.632 611.702 223.593V216.051C611.702 213.012 609.216 210.527 606.176 210.527H563.795C560.755 210.527 558.269 213.012 558.269 216.051V223.593C558.269 226.632 560.755 229.117 563.795 229.117H567.623" fill="#725B9C"/>
<path d="M574.549 229.117H606.176C609.216 229.117 611.702 226.632 611.702 223.593V216.051C611.702 213.012 609.216 210.527 606.176 210.527H563.795C560.755 210.527 558.269 213.012 558.269 216.051V223.593C558.269 226.632 560.755 229.117 563.795 229.117H567.623" stroke="black" stroke-width="3" stroke-miterlimit="10" stroke-linecap="round" stroke-linejoin="round"/>
<path d="M574.549 229.117L567.628 237.297V229.117" fill="#725B9C"/>
<path d="M574.549 229.117L567.628 237.297V229.117" stroke="black" stroke-width="3" stroke-miterlimit="10" stroke-linecap="round" stroke-linejoin="round"/>
<path d="M565.35 299.021C577.927 299.021 588.122 289.048 588.122 276.745C588.122 264.442 577.927 254.468 565.35 254.468C552.774 254.468 542.579 264.442 542.579 276.745C542.579 289.048 552.774 299.021 565.35 299.021Z" fill="#E094BB" stroke="black" stroke-width="3" stroke-miterlimit="10" stroke-linecap="round" stroke-linejoin="round"/>
<path d="M558.42 279.22C560.06 279.22 561.39 275.452 561.39 270.804C561.39 266.156 560.06 262.389 558.42 262.389C556.78 262.389 555.45 266.156 555.45 270.804C555.45 275.452 556.78 279.22 558.42 279.22Z" fill="white" stroke="black" stroke-width="3" stroke-miterlimit="10" stroke-linecap="round" stroke-linejoin="round"/>
<path d="M572.776 279.22C574.143 279.22 575.251 275.452 575.251 270.804C575.251 266.156 574.143 262.389 572.776 262.389C571.409 262.389 570.301 266.156 570.301 270.804C570.301 275.452 571.409 279.22 572.776 279.22Z" fill="white" stroke="black" stroke-width="3" stroke-miterlimit="10" stroke-linecap="round" stroke-linejoin="round"/>
<path d="M583.172 277.24C583.172 286.538 575.412 294.071 565.845 294.071C556.279 294.071 548.519 286.533 548.519 277.24" stroke="black" stroke-width="3" stroke-miterlimit="10" stroke-linecap="round" stroke-linejoin="round"/>
<path d="M193.084 20.8113H29.7219V138.63H193.084V20.8113Z" fill="black" stroke="black" stroke-width="3" stroke-miterlimit="10" stroke-linecap="round" stroke-linejoin="round"/>
<path d="M157.441 364.366H94.0767V446.542H157.441V364.366Z" fill="#55B587" stroke="black" stroke-width="3" stroke-miterlimit="10" stroke-linecap="round" stroke-linejoin="round"/>
<path d="M143.58 379.217H81.2057V461.393H143.58V379.217Z" fill="#A7669D" stroke="black" stroke-width="3" stroke-miterlimit="10" stroke-linecap="round" stroke-linejoin="round"/>
<path d="M130.709 395.058H67.3447V477.234H130.709V395.058Z" fill="#EFC360" stroke="black" stroke-width="3" stroke-miterlimit="10" stroke-linecap="round" stroke-linejoin="round"/>
<path d="M686.639 446.542H597.522C593.986 446.542 591.092 443.654 591.092 440.124V298.509C591.092 294.979 593.986 292.091 597.522 292.091H686.639C690.176 292.091 693.07 294.979 693.07 298.509V440.129C693.07 443.654 690.176 446.542 686.639 446.542Z" fill="#E96C56" stroke="black" stroke-width="3" stroke-miterlimit="10" stroke-linecap="round" stroke-linejoin="round"/>
<path d="M116.848 409.909H53.4836V492.085H116.848V409.909Z" fill="white" stroke="black" stroke-width="3" stroke-miterlimit="10" stroke-linecap="round" stroke-linejoin="round"/>
<path d="M189.745 26.3296H25.6981V133.814H189.745V26.3296Z" fill="#EB8A55" stroke="black" stroke-width="3" stroke-miterlimit="10" stroke-linecap="round" stroke-linejoin="round"/>
<path d="M105.004 133.835C105.004 133.835 105.073 131.115 102.304 128.853C99.5362 126.591 96.8957 119.172 98.5301 114.021C100.164 108.869 99.6533 100.386 93.5205 95.4627C87.3878 90.5398 89.991 83.0144 89.991 83.0144C90.4009 81.9341 93.9837 76.2288 87.063 68.8365C84.8218 66.4416 86.9885 59.9221 86.9779 53.839C86.9725 51.3003 86.1793 49.246 85.0401 47.6068C82.1973 43.5195 76.9748 41.8005 72.1676 43.0991L66.0402 44.7542C66.0402 44.7542 63.4316 36.1911 55.7177 37.7345C48.0038 39.2778 46.5186 49.2141 46.5186 49.2141C46.5186 49.2141 45.571 58.6182 42.6856 62.7055C39.8002 66.7928 39.369 69.8317 40.439 73.9669C41.5091 78.1022 45.1078 81.5722 45.1078 81.5722C45.1078 81.5722 47.5088 84.9091 45.1078 89.3104C42.7069 93.7117 38.5704 97.0487 38.5704 97.0487C38.5704 97.0487 30.0314 102.254 31.6285 109.321C33.2309 116.394 39.5021 119.593 36.4304 124.798C33.3586 130.003 28.2427 133.835 28.2427 133.835H105.004Z" fill="#EFC360" stroke="black" stroke-width="3" stroke-miterlimit="10" stroke-linecap="round" stroke-linejoin="round"/>
<path d="M90.7951 133.835V113.643C90.7951 109.034 87.0206 105.26 82.4104 105.26H49.6703C45.0601 105.26 41.2856 109.034 41.2856 113.643V133.835H90.7951Z" fill="#557EB8" stroke="black" stroke-width="3" stroke-miterlimit="10" stroke-linecap="round" stroke-linejoin="round"/>
<path d="M69.7082 93.9138H62.8461V105.26H69.7082V93.9138Z" fill="#E094BB" stroke="black" stroke-width="3" stroke-miterlimit="10" stroke-linecap="round" stroke-linejoin="round"/>
<path d="M83.4165 62.3065H75.5003L74.2918 53.1792L71.8749 62.3065H60.7273L59.2527 55.8615L57.5065 62.3065H52.6142H49.5797H51.6666V82.3653C51.6666 88.7145 56.8624 93.9141 63.2188 93.9141H68.9789C75.266 93.9141 80.414 88.7677 80.414 82.4824V64.7493V62.3065" fill="#E094BB"/>
<path d="M83.4165 62.3065H75.5003L74.2918 53.1792L71.8749 62.3065H60.7273L59.2527 55.8615L57.5065 62.3065H52.6142H49.5797H51.6666V82.3653C51.6666 88.7145 56.8624 93.9141 63.2188 93.9141H68.9789C75.266 93.9141 80.414 88.7677 80.414 82.4824V64.7493V62.3065" stroke="black" stroke-width="3" stroke-miterlimit="10" stroke-linecap="round" stroke-linejoin="round"/>
<path d="M107.399 27.0107V134.495" stroke="black" stroke-width="3" stroke-miterlimit="10" stroke-linecap="round" stroke-linejoin="round"/>
<path d="M156.323 26.3296H107.399V75.9204H156.323V26.3296Z" fill="#55B587" stroke="black" stroke-width="3" stroke-miterlimit="10" stroke-linecap="round" stroke-linejoin="round"/>
<path d="M114.171 33.7803L128.215 66.0425L146.443 47.8198L114.171 33.7803Z" fill="#75BBE5" stroke="black" stroke-width="3" stroke-miterlimit="10" stroke-linecap="round" stroke-linejoin="round"/>
<path d="M139.314 54.9466L135.347 58.9131L145.585 69.149L149.553 65.1826L139.314 54.9466Z" fill="#75BBE5" stroke="black" stroke-width="3" stroke-miterlimit="10" stroke-linecap="round" stroke-linejoin="round"/>
<path d="M189.42 75.2393H107.719V133.814H189.42V75.2393Z" fill="white" stroke="black" stroke-width="3" stroke-miterlimit="10" stroke-linecap="round" stroke-linejoin="round"/>
<path d="M156.323 80.7527H112.787V106.469H156.323V80.7527Z" fill="#E094BB" stroke="black" stroke-width="3" stroke-miterlimit="10" stroke-linecap="round" stroke-linejoin="round"/>
<path d="M112.787 80.7527L156.323 106.469" stroke="black" stroke-width="3" stroke-miterlimit="10" stroke-linecap="round" stroke-linejoin="round"/>
<path d="M156.323 80.7527L112.787 106.469" stroke="black" stroke-width="3" stroke-miterlimit="10" stroke-linecap="round" stroke-linejoin="round"/>
<path d="M189.553 26.3296H156.323V75.2392H189.553V26.3296Z" fill="#EFC360" stroke="black" stroke-width="3" stroke-miterlimit="10" stroke-linecap="round" stroke-linejoin="round"/>
<path d="M156.323 62.0457L163.925 75.239" stroke="black" stroke-width="3" stroke-miterlimit="10" stroke-linecap="round" stroke-linejoin="round"/>
<path d="M156.323 52.4236L169.355 75.037" stroke="black" stroke-width="3" stroke-miterlimit="10" stroke-linecap="round" stroke-linejoin="round"/>
<path d="M156.323 42.801L174.902 75.0366" stroke="black" stroke-width="3" stroke-miterlimit="10" stroke-linecap="round" stroke-linejoin="round"/>
<path d="M156.323 33.1787L180.567 75.2388" stroke="black" stroke-width="3" stroke-miterlimit="10" stroke-linecap="round" stroke-linejoin="round"/>
<path d="M158.314 27.0107L185.997 75.0369" stroke="black" stroke-width="3" stroke-miterlimit="10" stroke-linecap="round" stroke-linejoin="round"/>
<path d="M163.861 27.0107L189.42 71.3487" stroke="black" stroke-width="3" stroke-miterlimit="10" stroke-linecap="round" stroke-linejoin="round"/>
<path d="M169.409 27.0107L189.42 61.7265" stroke="black" stroke-width="3" stroke-miterlimit="10" stroke-linecap="round" stroke-linejoin="round"/>
<path d="M174.956 27.0107L189.42 52.1042" stroke="black" stroke-width="3" stroke-miterlimit="10" stroke-linecap="round" stroke-linejoin="round"/>
<path d="M180.567 27.1226L189.42 42.4766" stroke="black" stroke-width="3" stroke-miterlimit="10" stroke-linecap="round" stroke-linejoin="round"/>
<path d="M149.733 111.301H119.521V129.465H149.733V111.301Z" fill="#725B9C" stroke="black" stroke-width="3" stroke-miterlimit="10" stroke-linecap="round" stroke-linejoin="round"/>
<path d="M173.715 127.342C177.696 127.342 180.923 124.116 180.923 120.136C180.923 116.156 177.696 112.93 173.715 112.93C169.734 112.93 166.507 116.156 166.507 120.136C166.507 124.116 169.734 127.342 173.715 127.342Z" fill="#ABE5D3" stroke="black" stroke-width="3" stroke-miterlimit="10"/>
<path d="M82.4156 105.266V133.813" stroke="black" stroke-width="3" stroke-miterlimit="10" stroke-linecap="round" stroke-linejoin="round"/>
<path d="M49.6703 105.266V134.494" stroke="black" stroke-width="3" stroke-miterlimit="10" stroke-linecap="round" stroke-linejoin="round"/>
<path d="M74.0416 105.266C74.0416 109.55 70.5653 113.025 66.2799 113.025C61.9944 113.025 58.5181 109.55 58.5181 105.266H74.0416Z" fill="#E094BB" stroke="black" stroke-width="3" stroke-miterlimit="10" stroke-linecap="round" stroke-linejoin="round"/>
<path d="M59.0611 71.7159C59.996 71.7159 60.7539 70.9582 60.7539 70.0235C60.7539 69.0888 59.996 68.3311 59.0611 68.3311C58.1261 68.3311 57.3682 69.0888 57.3682 70.0235C57.3682 70.9582 58.1261 71.7159 59.0611 71.7159Z" fill="black" stroke="black" stroke-width="3" stroke-miterlimit="10" stroke-linecap="round" stroke-linejoin="round"/>
<path d="M72.9343 71.7159C73.8693 71.7159 74.6272 70.9582 74.6272 70.0235C74.6272 69.0888 73.8693 68.3311 72.9343 68.3311C71.9994 68.3311 71.2415 69.0888 71.2415 70.0235C71.2415 70.9582 71.9994 71.7159 72.9343 71.7159Z" fill="black" stroke="black" stroke-width="3" stroke-miterlimit="10" stroke-linecap="round" stroke-linejoin="round"/>
<path d="M72.9343 70.0233L76.746 66.8301" stroke="black" stroke-width="3" stroke-miterlimit="10" stroke-linecap="round" stroke-linejoin="round"/>
<path d="M59.061 70.0233L55.771 66.8301" stroke="black" stroke-width="3" stroke-miterlimit="10" stroke-linecap="round" stroke-linejoin="round"/>
<path d="M69.7082 82.0671C69.7082 84.1481 68.0206 85.8298 65.9444 85.8298C63.8629 85.8298 62.1807 84.1427 62.1807 82.0671" stroke="black" stroke-width="3" stroke-miterlimit="10" stroke-linecap="round" stroke-linejoin="round"/>
<path d="M189.745 15.8611H25.6981V26.3295H189.745V15.8611Z" fill="#725B9C" stroke="black" stroke-width="3" stroke-miterlimit="10" stroke-linecap="round" stroke-linejoin="round"/>
<path d="M693.632 440.601H605.38C601.878 440.601 599.013 437.732 599.013 434.224V293.517C599.013 290.01 601.878 287.14 605.38 287.14H693.632C697.134 287.14 700 290.01 700 293.517V434.224C700 437.732 697.134 440.601 693.632 440.601Z" fill="#E094BB" stroke="black" stroke-width="3" stroke-miterlimit="10" stroke-linecap="round" stroke-linejoin="round"/>
<path d="M691.089 296.051H606.933V418.82H691.089V296.051Z" fill="#B6D5EB" stroke="black" stroke-width="3" stroke-miterlimit="10" stroke-linecap="round" stroke-linejoin="round"/>
<path d="M650.02 397.038H563.847C560.317 397.038 557.43 394.102 557.43 390.513V377.822C557.43 374.233 560.317 371.296 563.847 371.296H650.02C653.549 371.296 656.437 374.233 656.437 377.822V390.513C656.437 394.102 653.549 397.038 650.02 397.038Z" fill="black" stroke="black" stroke-width="3" stroke-miterlimit="10" stroke-linecap="round" stroke-linejoin="round"/>
<path d="M649.011 433.671C652.019 433.671 654.457 431.233 654.457 428.226C654.457 425.218 652.019 422.78 649.011 422.78C646.004 422.78 643.566 425.218 643.566 428.226C643.566 431.233 646.004 433.671 649.011 433.671Z" fill="white" stroke="black" stroke-width="3" stroke-miterlimit="10" stroke-linecap="round" stroke-linejoin="round"/>
<path d="M630.674 323.773H617.845C615.654 323.773 613.864 321.982 613.864 319.792V306.963C613.864 304.772 615.654 302.981 617.845 302.981H630.674C632.865 302.981 634.655 304.772 634.655 306.963V319.792C634.65 321.982 632.859 323.773 630.674 323.773Z" fill="#80D1B6" stroke="black" stroke-width="3" stroke-miterlimit="10" stroke-linecap="round" stroke-linejoin="round"/>
<path d="M655.426 323.773H642.597C640.406 323.773 638.616 321.982 638.616 319.792V306.963C638.616 304.772 640.406 302.981 642.597 302.981H655.426C657.617 302.981 659.407 304.772 659.407 306.963V319.792C659.402 321.982 657.611 323.773 655.426 323.773Z" fill="#EB8A55" stroke="black" stroke-width="3" stroke-miterlimit="10" stroke-linecap="round" stroke-linejoin="round"/>
<path d="M680.978 323.773H667.538C665.243 323.773 663.367 321.982 663.367 319.792V306.963C663.367 304.772 665.243 302.981 667.538 302.981H680.978C683.273 302.981 685.149 304.772 685.149 306.963V319.792C685.149 321.982 683.273 323.773 680.978 323.773Z" fill="#557EB8" stroke="black" stroke-width="3" stroke-miterlimit="10" stroke-linecap="round" stroke-linejoin="round"/>
<path d="M653.054 392.088H567.743C564.249 392.088 561.39 389.265 561.39 385.814V373.61C561.39 370.16 564.249 367.336 567.743 367.336H653.054C656.548 367.336 659.407 370.16 659.407 373.61V385.814C659.407 389.265 656.548 392.088 653.054 392.088Z" fill="white" stroke="black" stroke-width="3" stroke-miterlimit="10" stroke-linecap="round" stroke-linejoin="round"/>
<path d="M330.704 163.382H127.739V296.051H330.704V163.382Z" fill="black" stroke="black" stroke-width="3" stroke-miterlimit="10" stroke-linecap="round" stroke-linejoin="round"/>
<path d="M326.743 172.292H123.779V291.101H326.743V172.292Z" fill="white" stroke="black" stroke-width="3" stroke-miterlimit="10" stroke-linecap="round" stroke-linejoin="round"/>
<path d="M326.743 172.684H176.252V219.227H326.743V172.684Z" fill="#75BBE5" stroke="black" stroke-width="3" stroke-miterlimit="10" stroke-linecap="round" stroke-linejoin="round"/>
<path d="M211.4 205.955C219.329 205.955 225.756 199.527 225.756 191.599C225.756 183.67 219.329 177.243 211.4 177.243C203.471 177.243 197.044 183.67 197.044 191.599C197.044 199.527 203.471 205.955 211.4 205.955Z" fill="#EFC360" stroke="black" stroke-width="3" stroke-miterlimit="10" stroke-linecap="round" stroke-linejoin="round"/>
<path d="M175.726 172.292V218.826L216.956 192.309L237.342 201.738L272.99 182.879L326.743 218.826H123.779" fill="#80D1B6"/>
<path d="M175.726 172.292V218.826L216.956 192.309L237.342 201.738L272.99 182.879L326.743 218.826H123.779" stroke="black" stroke-width="3" stroke-miterlimit="10" stroke-linecap="round" stroke-linejoin="round"/>
<path d="M274.27 218.825V292.091" stroke="black" stroke-width="3" stroke-miterlimit="10" stroke-linecap="round" stroke-linejoin="round"/>
<path d="M326.743 159.385H123.779V172.684H326.743V159.385Z" fill="white" stroke="black" stroke-width="3" stroke-miterlimit="10" stroke-linecap="round" stroke-linejoin="round"/>
<path d="M274.269 218.825H123.779V292.091H274.269V218.825Z" fill="#557EB8" stroke="black" stroke-width="3" stroke-miterlimit="10" stroke-linecap="round" stroke-linejoin="round"/>
<path d="M326.743 218.825H275.26V291.101H326.743V218.825Z" fill="#E96C56" stroke="black" stroke-width="3" stroke-miterlimit="10" stroke-linecap="round" stroke-linejoin="round"/>
<path d="M160.411 291.101C180.643 291.101 197.044 274.921 197.044 254.963C197.044 235.005 180.643 218.825 160.411 218.825C140.18 218.825 123.779 235.005 123.779 254.963C123.779 274.921 140.18 291.101 160.411 291.101Z" fill="#E094BB" stroke="black" stroke-width="3" stroke-miterlimit="10" stroke-linecap="round" stroke-linejoin="round"/>
<path d="M160.411 281.2C174.628 281.2 186.153 269.453 186.153 254.963C186.153 240.473 174.628 228.726 160.411 228.726C146.195 228.726 134.67 240.473 134.67 254.963C134.67 269.453 146.195 281.2 160.411 281.2Z" fill="#725B9C" stroke="black" stroke-width="3" stroke-miterlimit="10" stroke-linecap="round" stroke-linejoin="round"/>
<path d="M176.252 172.684H123.779V219.227H176.252V172.684Z" fill="white" stroke="black" stroke-width="3" stroke-miterlimit="10" stroke-linecap="round" stroke-linejoin="round"/>
<path d="M222.786 291.101C237.003 291.101 248.528 279.576 248.528 265.359C248.528 251.142 237.003 239.617 222.786 239.617C208.569 239.617 197.044 251.142 197.044 265.359C197.044 279.576 208.569 291.101 222.786 291.101Z" fill="#EB8A55" stroke="black" stroke-width="3" stroke-miterlimit="10" stroke-linecap="round" stroke-linejoin="round"/>
<path d="M255.953 255.458C266.069 255.458 274.269 247.258 274.269 237.142C274.269 227.026 266.069 218.825 255.953 218.825C245.837 218.825 237.637 227.026 237.637 237.142C237.637 247.258 245.837 255.458 255.953 255.458Z" fill="#75BBE5" stroke="black" stroke-width="3" stroke-miterlimit="10" stroke-linecap="round" stroke-linejoin="round"/>
<path d="M169.322 179.223H129.719V189.123H169.322V179.223Z" fill="#75BBE5" stroke="black" stroke-width="3" stroke-miterlimit="10" stroke-linecap="round" stroke-linejoin="round"/>
<path d="M129.719 195.064H169.322" stroke="black" stroke-width="3" stroke-miterlimit="10" stroke-linecap="round" stroke-linejoin="round"/>
<path d="M129.719 199.024H169.322" stroke="black" stroke-width="3" stroke-miterlimit="10" stroke-linecap="round" stroke-linejoin="round"/>
<path d="M129.719 202.984H169.322" stroke="black" stroke-width="3" stroke-miterlimit="10" stroke-linecap="round" stroke-linejoin="round"/>
<path d="M129.719 205.955H169.322" stroke="black" stroke-width="3" stroke-miterlimit="10" stroke-linecap="round" stroke-linejoin="round"/>
<path d="M129.719 209.915H169.322" stroke="black" stroke-width="3" stroke-miterlimit="10" stroke-linecap="round" stroke-linejoin="round"/>
<path d="M300.011 292.091V258.748V250.508" fill="#EFC360"/>
<path d="M300.011 292.091V258.748V250.508" stroke="black" stroke-width="3" stroke-miterlimit="10" stroke-linecap="round" stroke-linejoin="round"/>
<path d="M289.434 263.379C292.89 263.379 300.011 269.814 300.011 269.814C300.011 269.814 292.89 276.25 289.434 276.25C285.977 276.25 283.18 273.365 283.18 269.814C283.18 266.263 285.983 263.379 289.434 263.379Z" fill="#55B587" stroke="black" stroke-width="3" stroke-miterlimit="10" stroke-linecap="round" stroke-linejoin="round"/>
<path d="M310.589 265.359C307.133 265.359 300.011 258.924 300.011 258.924C300.011 258.924 307.133 252.488 310.589 252.488C314.045 252.488 316.843 255.372 316.843 258.924C316.843 262.475 314.045 265.359 310.589 265.359Z" fill="#55B587" stroke="black" stroke-width="3" stroke-miterlimit="10" stroke-linecap="round" stroke-linejoin="round"/>
<path d="M310.589 287.14C307.133 287.14 300.011 281.2 300.011 281.2C300.011 281.2 307.133 275.26 310.589 275.26C314.045 275.26 316.843 277.922 316.843 281.2C316.843 284.483 314.045 287.14 310.589 287.14Z" fill="#55B587" stroke="black" stroke-width="3" stroke-miterlimit="10" stroke-linecap="round" stroke-linejoin="round"/>
<path d="M300.506 250.508C308.435 250.508 314.862 244.08 314.862 236.152C314.862 228.223 308.435 221.796 300.506 221.796C292.578 221.796 286.15 228.223 286.15 236.152C286.15 244.08 292.578 250.508 300.506 250.508Z" fill="white" stroke="black" stroke-width="3" stroke-miterlimit="10" stroke-linecap="round" stroke-linejoin="round"/>
<path d="M300.011 243.577C303.839 243.577 306.942 240.474 306.942 236.647C306.942 232.819 303.839 229.716 300.011 229.716C296.184 229.716 293.081 232.819 293.081 236.647C293.081 240.474 296.184 243.577 300.011 243.577Z" fill="#EFC360" stroke="black" stroke-width="3" stroke-miterlimit="10" stroke-linecap="round" stroke-linejoin="round"/>
<path d="M140.61 159.385H123.779V172.684H140.61V159.385Z" fill="white" stroke="black" stroke-width="3" stroke-miterlimit="10" stroke-linecap="round" stroke-linejoin="round"/>
<path d="M157.441 159.385H140.61V172.684H157.441V159.385Z" fill="white" stroke="black" stroke-width="3" stroke-miterlimit="10" stroke-linecap="round" stroke-linejoin="round"/>
<path d="M174.272 159.385H157.441V172.684H174.272V159.385Z" fill="white" stroke="black" stroke-width="3" stroke-miterlimit="10" stroke-linecap="round" stroke-linejoin="round"/>
<path d="M129.719 163.185L135.66 168.884" stroke="black" stroke-width="3" stroke-miterlimit="10" stroke-linecap="round" stroke-linejoin="round"/>
<path d="M135.66 163.185L129.719 168.884" stroke="black" stroke-width="3" stroke-miterlimit="10" stroke-linecap="round" stroke-linejoin="round"/>
<path d="M152.491 163.382H146.55V168.332H152.491V163.382Z" fill="white" stroke="black" stroke-width="3" stroke-miterlimit="10" stroke-linecap="round" stroke-linejoin="round"/>
<path d="M163.382 168.332H169.322" stroke="black" stroke-width="3" stroke-miterlimit="10" stroke-linecap="round" stroke-linejoin="round"/>
<path d="M586.637 89.5706V112.367L563.37 89.5706H586.637Z" fill="#ABE5D3"/>
<path d="M271.017 104.584L286.728 105.625L282.041 90.8825L294.128 100.782L299.179 86.156L303.023 101.129L315.871 92.2074L310.01 106.534L325.753 106.723L312.418 114.936L325.045 124.157L309.334 123.122L314.021 137.858L301.935 127.964L296.884 142.59L293.039 127.617L280.192 136.539L286.052 122.212L270.309 122.023L283.645 113.81L271.017 104.584Z" fill="#725B9C" stroke="black" stroke-width="3" stroke-miterlimit="10" stroke-linecap="round" stroke-linejoin="round"/>
<path d="M245.557 105.958H228.726V107.938H245.557V105.958Z" fill="#725B9C" stroke="black" stroke-width="3" stroke-miterlimit="10" stroke-linecap="round" stroke-linejoin="round"/>
<path d="M236.647 106.948V123.779H237.637V106.948H236.647Z" fill="#725B9C" stroke="black" stroke-width="3" stroke-miterlimit="10" stroke-linecap="round" stroke-linejoin="round"/>
<path d="M562.38 215.855L569.606 225.756L577.771 215.855L584.937 225.756L592.581 215.855L598.766 224.616L605.943 215.855" stroke="black" stroke-width="3" stroke-miterlimit="10" stroke-linecap="round" stroke-linejoin="round"/>
<path d="M627.725 234.667L634.782 244.567L642.768 234.667L649.772 244.567L657.243 234.667L663.283 243.427L670.298 234.667" stroke="black" stroke-width="3" stroke-miterlimit="10" stroke-linecap="round" stroke-linejoin="round"/>
<path d="M629.705 192.094L636.762 200.014L644.746 192.094L651.75 200.014L659.22 192.094L665.264 199.101L672.278 192.094" stroke="black" stroke-width="3" stroke-miterlimit="10" stroke-linecap="round" stroke-linejoin="round"/>
<path d="M685.149 166.352H549.509V177.243H685.149V166.352Z" fill="#75BBE5" stroke="black" stroke-width="3" stroke-miterlimit="10" stroke-linecap="round" stroke-linejoin="round"/>
<path d="M463.373 119.354H451.745L449.892 115.338C448.923 113.236 446.836 111.898 444.541 111.898H423.628C420.428 111.898 417.83 114.521 417.83 117.752V125.805V129.858V150C417.83 153.548 420.705 156.451 424.219 156.451" fill="#EB8A55"/>
<path d="M463.373 119.354H451.745L449.892 115.338C448.923 113.236 446.836 111.898 444.541 111.898H423.628C420.428 111.898 417.83 114.521 417.83 117.752V125.805V129.858V150C417.83 153.548 420.705 156.451 424.219 156.451" stroke="black" stroke-width="3" stroke-miterlimit="10" stroke-linecap="round" stroke-linejoin="round"/>
<path d="M528.718 119.354H517.09L515.237 115.338C514.268 113.236 512.181 111.898 509.886 111.898H488.973C485.773 111.898 483.175 114.521 483.175 117.752V125.805V129.858V150C483.175 153.548 486.05 156.451 489.564 156.451" fill="#75BBE5"/>
<path d="M528.718 119.354H517.09L515.237 115.338C514.268 113.236 512.181 111.898 509.886 111.898H488.973C485.773 111.898 483.175 114.521 483.175 117.752V125.805V129.858V150C483.175 153.548 486.05 156.451 489.564 156.451" stroke="black" stroke-width="3" stroke-miterlimit="10" stroke-linecap="round" stroke-linejoin="round"/>
<path d="M585.152 372.287H567.331V387.138H585.152V372.287Z" fill="#80D1B6" stroke="black" stroke-width="3" stroke-miterlimit="10" stroke-linecap="round" stroke-linejoin="round"/>
<path d="M591.092 373.277H609.904" stroke="black" stroke-width="3" stroke-miterlimit="10" stroke-linecap="round" stroke-linejoin="round"/>
<path d="M591.092 378.227H652.477" stroke="black" stroke-width="3" stroke-miterlimit="10" stroke-linecap="round" stroke-linejoin="round"/>
<path d="M591.092 381.197H652.477" stroke="black" stroke-width="3" stroke-miterlimit="10" stroke-linecap="round" stroke-linejoin="round"/>
<path d="M591.092 385.157H652.477" stroke="black" stroke-width="3" stroke-miterlimit="10" stroke-linecap="round" stroke-linejoin="round"/>
<path d="M624.26 319.813C627.814 319.813 630.695 316.932 630.695 313.377C630.695 309.823 627.814 306.942 624.26 306.942C620.705 306.942 617.824 309.823 617.824 313.377C617.824 316.932 620.705 319.813 624.26 319.813Z" fill="#725B9C" stroke="black" stroke-width="3" stroke-miterlimit="10" stroke-linecap="round" stroke-linejoin="round"/>
<path d="M649.506 302.981L659.407 314.862" stroke="black" stroke-width="3" stroke-miterlimit="10" stroke-linecap="round" stroke-linejoin="round"/>
<path d="M674.479 316.842L664.357 310.797L675.248 305.952L674.479 316.842Z" fill="#EFC360" stroke="black" stroke-width="3" stroke-miterlimit="10" stroke-linecap="round" stroke-linejoin="round"/>
<path d="M423.77 254.468H345.555V291.101H423.77V254.468Z" fill="white" stroke="black" stroke-width="3" stroke-miterlimit="10" stroke-linecap="round" stroke-linejoin="round"/>
<path d="M368.326 314.862H304.962V334.664H368.326V314.862Z" fill="#EFC360" stroke="black" stroke-width="3" stroke-miterlimit="10" stroke-linecap="round" stroke-linejoin="round"/>
<path d="M108.928 418.82H60.4142V432.681H108.928V418.82Z" fill="#ABE5D3" stroke="black" stroke-width="3" stroke-miterlimit="10" stroke-linecap="round" stroke-linejoin="round"/>
<path d="M75.2652 451.492H60.4142V482.184H75.2652V451.492Z" fill="#B6D5EB" stroke="black" stroke-width="3" stroke-miterlimit="10" stroke-linecap="round" stroke-linejoin="round"/>
<path d="M60.4142 438.621H108.928" stroke="black" stroke-width="3" stroke-miterlimit="10" stroke-linecap="round" stroke-linejoin="round"/>
<path d="M60.4142 443.572H108.928" stroke="black" stroke-width="3" stroke-miterlimit="10" stroke-linecap="round" stroke-linejoin="round"/>
<path d="M79.2256 454.462H108.928" stroke="black" stroke-width="3" stroke-miterlimit="10" stroke-linecap="round" stroke-linejoin="round"/>
<path d="M79.2256 458.423H108.928" stroke="black" stroke-width="3" stroke-miterlimit="10" stroke-linecap="round" stroke-linejoin="round"/>
<path d="M79.2256 462.383H108.928" stroke="black" stroke-width="3" stroke-miterlimit="10" stroke-linecap="round" stroke-linejoin="round"/>
<path d="M79.2256 466.343H108.928" stroke="black" stroke-width="3" stroke-miterlimit="10" stroke-linecap="round" stroke-linejoin="round"/>
<path d="M79.2256 470.303H108.928" stroke="black" stroke-width="3" stroke-miterlimit="10" stroke-linecap="round" stroke-linejoin="round"/>
<path d="M79.2256 474.264H108.928" stroke="black" stroke-width="3" stroke-miterlimit="10" stroke-linecap="round" stroke-linejoin="round"/>
<path d="M79.2256 478.224H108.928" stroke="black" stroke-width="3" stroke-miterlimit="10" stroke-linecap="round" stroke-linejoin="round"/>
<path d="M60.4142 451.492L75.2652 482.184" stroke="black" stroke-width="3" stroke-miterlimit="10" stroke-linecap="round" stroke-linejoin="round"/>
<path d="M75.2652 451.492L60.4142 482.184" stroke="black" stroke-width="3" stroke-miterlimit="10" stroke-linecap="round" stroke-linejoin="round"/>
<path d="M60.4142 418.82L108.928 432.681" stroke="black" stroke-width="3" stroke-miterlimit="10" stroke-linecap="round" stroke-linejoin="round"/>
<path d="M108.928 418.82L60.4142 432.681" stroke="black" stroke-width="3" stroke-miterlimit="10" stroke-linecap="round" stroke-linejoin="round"/>
<path d="M368.326 268.329H350.505V286.15H368.326V268.329Z" fill="#ABE5D3" stroke="black" stroke-width="3" stroke-miterlimit="10" stroke-linejoin="round"/>
<path d="M393.078 268.329H375.257V286.15H393.078V268.329Z" fill="#ABE5D3" stroke="black" stroke-width="3" stroke-miterlimit="10" stroke-linejoin="round"/>
<path d="M417.83 268.329H400.009V286.15H417.83V268.329Z" fill="#ABE5D3" stroke="black" stroke-width="3" stroke-miterlimit="10" stroke-linejoin="round"/>
<path d="M423.77 248.528H345.555V255.458H423.77V248.528Z" fill="#725B9C" stroke="black" stroke-width="3" stroke-miterlimit="10" stroke-linecap="round" stroke-linejoin="round"/>
<path d="M349.02 324.763C355.855 324.763 361.396 319.001 361.396 311.892C361.396 304.784 355.855 299.021 349.02 299.021C342.185 299.021 336.644 304.784 336.644 311.892C336.644 319.001 342.185 324.763 349.02 324.763Z" fill="white" stroke="black" stroke-width="3" stroke-miterlimit="10" stroke-linecap="round" stroke-linejoin="round"/>
<path d="M592.082 63.3844C603.565 63.3844 612.874 53.6325 612.874 41.6029C612.874 29.5732 603.565 19.8213 592.082 19.8213C580.599 19.8213 571.291 29.5732 571.291 41.6029C571.291 53.6325 580.599 63.3844 592.082 63.3844Z" fill="white" stroke="black" stroke-width="3" stroke-miterlimit="10" stroke-linecap="round" stroke-linejoin="round"/>
<path d="M536.356 20.4276L552.067 21.4685L547.38 6.7265L559.467 16.6264L564.518 2L568.362 16.9734L581.21 8.05139L575.349 22.3781L591.092 22.5674L577.757 30.7796L590.384 40.0012L574.673 38.9655L579.36 53.7023L567.274 43.8077L562.223 58.434L558.378 43.4607L545.531 52.3827L551.391 38.056L535.648 37.8667L548.984 29.6545L536.356 20.4276Z" fill="#725B9C" stroke="black" stroke-width="3" stroke-miterlimit="10" stroke-linecap="round" stroke-linejoin="round"/>
</svg>
